<svg clip-rule="evenodd" fill-rule="evenodd" stroke-linejoin="round" stroke-miterlimit="1.41421" viewBox="0 0 32 32" xmlns="http://www.w3.org/2000/svg"><path d="m32 0v32h-32v-32z" fill="none"/><path d="m17 19.172-5-5-2.828 2.828v2l9.828 9.828 9.828-9.828v-2l-2.828-2.828-5 5v-7.172c0-2.652-1.054-5.196-2.929-7.071s-4.419-2.929-7.071-2.929c-3.695 0-7 0-7 0v6h7c3.314 0 6 2.686 6 6z" fill="none" stroke="#000" stroke-width="4"/><path d="m18 21.172-8.828-4.172v2l9.828 9.828 9.828-9.828v-2l-8.828 4.172v-10.172l-6-7h-10v4h7c3.314 0 6 2.686 6 6l1 2z" fill="#747474" fill-rule="nonzero"/><path d="m4 6v-4h7c2.652 0 5.196 1.054 7.071 2.929s2.929 4.419 2.929 7.071v7.172l5-5 2.828 2.828-9.828 9.828-9.828-9.828 2.828-2.828 5 5v-7.172c0-3.314-2.686-6-6-6h-7z" fill="#fff"/></svg>