<svg clip-rule="evenodd" fill-rule="evenodd" stroke-linejoin="round" stroke-miterlimit="1.41421" viewBox="0 0 32 32" xmlns="http://www.w3.org/2000/svg" xmlns:xlink="http://www.w3.org/1999/xlink"><clipPath id="a"><path clip-rule="evenodd" d="m32 32v-32h-32v32z"/></clipPath><path d="m32 32v-32h-32v32z" fill="none"/><g clip-path="url(#a)"><path d="m15 9.621-3.5 3.5-2.121-2.121v-2l7.121-7.121 7.121 7.121v2l-2.121 2.121-3.5-3.5v12.758l3.5-3.5 2.121 2.121v2l-7.121 7.121-7.121-7.121v-2l2.121-2.121 3.5 3.5z" fill="none" stroke="#000" stroke-width="4"/><g fill-rule="nonzero"><path d="m16 8.621-4.5 4.5-2.121-2.121v-2l7.121-6.121 7.121 6.121v2l-2.121 2.121-4.5-4.5v16.758l4.5-4.5 2.121.121v2l-7.121 7.121-7.121-7.121v-2l2.121-.121 4.5 4.5z" fill="#747474"/><path d="m15 7.621-3.5 3.5-2.121-2.121 7.121-7.121 7.121 7.121-2.121 2.121-3.5-3.5v14.758l3.5-3.5 2.121 2.121-7.121 7.121-7.121-7.121 2.121-2.121 3.5 3.5v-14.758z" fill="#fff"/></g></g></svg>