<svg clip-rule="evenodd" fill-rule="evenodd" stroke-linecap="round" stroke-linejoin="round" stroke-miterlimit="1.5" viewBox="0 0 32 32" xmlns="http://www.w3.org/2000/svg" xmlns:xlink="http://www.w3.org/1999/xlink"><clipPath id="a"><path clip-rule="evenodd" d="m0 0h32v32h-32z"/></clipPath><path d="m0 0h32v32h-32z" fill="none"/><g clip-path="url(#a)"><path d="m16 2 3.182 5 7.818-4-3 7 6 1-5 5 5 5-6 1 3 7-7.818-4-3.182 5-3.182-5-7.818 4 3-7-6-1 5-5-5-5 6-1-3-7 7.818 4z" fill="none" stroke="#000" stroke-width="4"/><path d="m16 2 3.182 5 7.818-4-3 7 6 1-5 5 5 5-6 1 3 7-7.818-4-3.182 5-3.182-5-7.818 4 3-7-6-1 5-5-5-5 6-1-3-7 7.818 4z" fill="#f30800"/><path d="m16 5 2 5 5-3-2 5h6l-5 4 5 4h-6l2 5-5-3-2 5-2-5-5 3 2-5h-6l5-4-5-4h6l-2-5 5 3z" fill="#ffa32b"/></g></svg>