<svg clip-rule="evenodd" fill-rule="evenodd" stroke-linecap="round" stroke-linejoin="round" stroke-miterlimit="1.5" viewBox="0 0 32 32" xmlns="http://www.w3.org/2000/svg" xmlns:xlink="http://www.w3.org/1999/xlink"><clipPath id="a"><path clip-rule="evenodd" d="m0 0h32v32h-32z"/></clipPath><clipPath id="b"><path clip-rule="evenodd" d="m12 5.5c0-.133.053-.26.146-.354.094-.093.221-.146.354-.146h7c.133 0 .26.053.354.146.093.094.146.221.146.354v1c0 .133-.053.26-.146.354-.094.093-.221.146-.354.146-.25 0-.5 0-.5 0v4s4.725 9.449 5.789 11.578c.139.277.211.584.211.894v4.528c0 .53-.211 1.039-.586 1.414s-.884.586-1.414.586c-3.463 0-10.537 0-14 0-.53 0-1.039-.211-1.414-.586s-.586-.884-.586-1.414c0-1.562 0-3.615 0-4.528 0-.31.072-.617.211-.894 1.064-2.129 5.789-11.578 5.789-11.578v-4s-.25 0-.5 0c-.133 0-.26-.053-.354-.146-.093-.094-.146-.221-.146-.354 0-.305 0-.695 0-1z"/></clipPath><path d="m0 0h32v32h-32z" fill="none"/><g clip-path="url(#a)"><path d="m12 5.5c0-.133.053-.26.146-.354.094-.093.221-.146.354-.146h7c.133 0 .26.053.354.146.093.094.146.221.146.354v1c0 .133-.053.26-.146.354-.094.093-.221.146-.354.146-.25 0-.5 0-.5 0v4s4.725 9.449 5.789 11.578c.139.277.211.584.211.894v4.528c0 .53-.211 1.039-.586 1.414s-.884.586-1.414.586c-3.463 0-10.537 0-14 0-.53 0-1.039-.211-1.414-.586s-.586-.884-.586-1.414c0-1.562 0-3.615 0-4.528 0-.31.072-.617.211-.894 1.064-2.129 5.789-11.578 5.789-11.578v-4s-.25 0-.5 0c-.133 0-.26-.053-.354-.146-.093-.094-.146-.221-.146-.354 0-.305 0-.695 0-1z" stroke="#000" stroke-width="4"/><path d="m14 2h4v5h-4z" fill="#63401e" stroke="#000" stroke-width="4"/><path d="m12 5.5c0-.133.053-.26.146-.354.094-.093.221-.146.354-.146h7c.133 0 .26.053.354.146.093.094.146.221.146.354v1c0 .133-.053.26-.146.354-.094.093-.221.146-.354.146-.25 0-.5 0-.5 0v4s4.725 9.449 5.789 11.578c.139.277.211.584.211.894v4.528c0 .53-.211 1.039-.586 1.414s-.884.586-1.414.586c-3.463 0-10.537 0-14 0-.53 0-1.039-.211-1.414-.586s-.586-.884-.586-1.414c0-1.562 0-3.615 0-4.528 0-.31.072-.617.211-.894 1.064-2.129 5.789-11.578 5.789-11.578v-4s-.25 0-.5 0c-.133 0-.26-.053-.354-.146-.093-.094-.146-.221-.146-.354 0-.305 0-.695 0-1z" fill="#d8d8d8"/><g clip-path="url(#b)"><path d="m6 13h21v18h-21z" fill="#30bfdb"/><path d="m6 12h21v3h-21z" fill="#72d3e7"/><path d="m16 10.399c0 .398-.06.795-.177 1.176-.677 2.2-3.096 10.062-3.69 11.994-.088.286-.133.583-.133.882v6.549h-7v-24h11z" fill="#fff" fill-opacity=".494118"/></g><path d="m19.5 5 .025.001.024.001.025.003.024.005.024.005.023.007.024.007.022.009.023.01.021.011.022.012.02.013.02.014.02.015.019.016.018.017.017.018.016.019.015.02.014.02.013.02.012.022.011.021.01.023.009.022.007.024.007.023.005.024.005.024.003.025.001.024.001.025v1l-.001.025-.001.024-.003.025-.005.024-.005.024-.007.023-.007.024-.009.022-.01.023-.011.021-.012.022-.013.02-.014.02-.015.02-.016.019-.017.018-.018.017-.019.016-.02.015-.02.014-.02.013-.022.012-.021.011-.023.01-.022.009-.024.007-.023.007-.024.005-.024.005-.025.003-.024.001-.025.001h-.5v4l5.789 11.578.025.052.024.053.022.054.02.054.019.055.018.055.015.056.015.056.012.056.011.057.009.057.008.057.005.058.005.058.002.058.001.058v4.528l-.001.05-.001.049-.004.05-.004.049-.005.049-.007.048-.008.049-.009.048-.01.048-.011.048-.013.047-.013.047-.015.046-.016.046-.017.046-.018.045-.019.045-.021.045-.021.043-.023.044-.023.043-.025.042-.025.042-.027.041-.028.04-.028.04-.03.039-.031.039-.032.037-.032.037-.034.037-.035.035-.035.035-.037.034-.037.032-.037.032-.039.031-.039.03-.04.028-.04.028-.041.027-.042.025-.042.025-.043.023-.044.023-.043.021-.045.021-.045.019-.045.018-.046.017-.046.016-.046.015-.047.013-.048.013-.047.011-.048.01-.048.009-.049.008-.048.007-.049.005-.049.004-.05.004-.049.001-.05.001h-14l-.05-.001-.049-.001-.05-.004-.049-.004-.049-.005-.048-.007-.049-.008-.048-.009-.048-.01-.047-.011-.048-.013-.047-.013-.046-.015-.046-.016-.046-.017-.045-.018-.045-.019-.045-.021-.043-.021-.044-.023-.043-.023-.042-.025-.042-.025-.041-.027-.04-.028-.04-.028-.039-.03-.039-.031-.037-.032-.037-.032-.037-.034-.035-.035-.035-.035-.034-.037-.032-.037-.032-.037-.031-.039-.03-.039-.028-.04-.028-.04-.027-.041-.025-.042-.025-.042-.023-.043-.023-.044-.021-.043-.021-.045-.019-.045-.018-.045-.017-.046-.016-.046-.015-.046-.013-.047-.013-.047-.011-.048-.01-.048-.009-.048-.008-.049-.007-.048-.005-.049-.004-.049-.004-.05-.001-.049-.001-.05v-4.528l.001-.058.002-.058.005-.058.005-.058.008-.057.009-.057.011-.057.012-.056.015-.056.015-.056.018-.055.019-.055.02-.054.022-.054.024-.053.025-.052 5.789-11.578v-4h-.5l-.025-.001-.024-.001-.025-.003-.024-.005-.024-.005-.023-.007-.024-.007-.022-.009-.023-.01-.021-.011-.022-.012-.02-.013-.02-.014-.02-.015-.019-.016-.018-.017-.017-.018-.016-.019-.015-.02-.014-.02-.013-.02-.012-.022-.011-.021-.01-.023-.009-.022-.007-.024-.007-.023-.005-.024-.005-.024-.003-.025-.001-.024-.001-.025v-1l.001-.025.001-.024.003-.025.005-.024.005-.024.007-.023.007-.024.009-.022.01-.023.011-.021.012-.022.013-.02.014-.02.015-.02.016-.019.017-.018.018-.017.019-.016.02-.015.02-.014.02-.013.022-.012.021-.011.023-.01.022-.009.024-.007.023-.007.024-.005.024-.005.025-.003.024-.001.025-.001zm-6.5 1s.098.005.098.005l.097.014.095.024.093.033.088.042.085.051.078.058.073.066.066.073.058.078.051.085.042.088.033.093.024.095.014.097.005.098v4l-.004.093-.013.091-.021.091-.03.087-.038.085-5.785 11.571-.016.033-.012.027-.011.027-.01.027-.01.027-.008.028-.008.027-.007.028-.006.029-.006.028-.004.029-.004.028-.003.029-.002.029-.001.029-.001.036v4.515.031l.001.025.002.024.002.025.003.024.003.025.004.024.004.024.006.024.005.024.006.023.007.024.008.023.008.023.008.023.009.023.01.022.01.022.011.022.011.022.012.021.012.021.013.021.013.021.014.02.014.02.015.019.015.02.016.019.017.018.017.018.017.018.018.017.018.017.018.017.019.016.02.015.019.015.02.014.02.014.021.013.021.013.021.012.021.012.022.011.022.011.022.01.022.01.023.009.023.008.023.008.023.008.024.007.023.006.024.005.024.006.024.004.024.004.025.003.024.003.025.002.024.002.025.001h.031 13.988.031l.025-.001.024-.002.025-.002.024-.003.025-.003.024-.004.024-.004.024-.006.024-.005.023-.006.024-.007.023-.008.023-.008.023-.008.023-.009.022-.01.022-.01.022-.011.022-.011.021-.012.021-.012.021-.013.021-.013.02-.014.02-.014.019-.015.02-.015.019-.016.018-.017.018-.017.018-.017.017-.018.017-.018.017-.018.016-.019.015-.02.015-.019.014-.02.014-.02.013-.021.013-.021.012-.021.012-.021.011-.022.011-.022.01-.022.01-.022.009-.023.008-.023.008-.023.008-.023.007-.024.006-.023.005-.024.006-.024.004-.024.004-.024.003-.025.003-.024.002-.025.002-.024.001-.025v-.031-4.515l-.001-.036-.001-.029-.002-.029-.003-.029-.004-.028-.004-.029-.006-.028-.006-.029-.007-.028-.008-.027-.008-.028-.01-.027-.01-.027-.011-.027-.012-.027-.016-.033-5.785-11.571-.038-.085-.03-.087-.021-.091-.013-.091-.004-.093v-4l.005-.098.014-.097.024-.095.033-.093.042-.088.051-.085.058-.078.066-.073.073-.066.078-.058.085-.051.088-.042.093-.033.095-.024.097-.014.098-.005h-6z" fill="#d8d8d8"/><path d="m14 2h4v4h-4z" fill="#63401e"/></g></svg>