<svg clip-rule="evenodd" fill-rule="evenodd" stroke-linecap="round" stroke-linejoin="round" stroke-miterlimit="1.5" viewBox="0 0 32 32" xmlns="http://www.w3.org/2000/svg"><path d="m0 0h32v32h-32z" fill="none"/><circle cx="12" cy="20" r="12"/><g fill="none"><path d="m16 11 2-2 5 5-2 2z" stroke="#000" stroke-width="4"/><path d="m22.5 5.5v-3.5l2.5 2 2.5-2v3.5l2.5 1.5-2.5 1.5v3.5l-2.5-2-2.5 2v-3.5l-2.5-1.5z" stroke="#000" stroke-width="4"/><path d="m16 16 10-10" stroke="#000" stroke-width="6"/><path d="m16 16 10-10" stroke="#808080" stroke-width="2"/></g><path d="m16 11 2-2 5 5-2 2z" fill="#333"/><path d="m22.5 5.5v-3.5l2.5 2 2.5-2v3.5l2.5 1.5-2.5 1.5v3.5l-2.5-2-2.5 2v-3.5l-2.5-1.5z" fill="#ffe2be"/><path d="m27.5 5.5 2.5 1.5-2.5 1.5v3.5l-2.5-2-2.5 2v-3.5l-2.5-1.5 2.5-1.5v-3.5l2.5 2 2.5-2zm-2.5-.219-1.5-1.2v1.985l-1.556.934 1.556.934v1.985l1.5-1.2 1.5 1.2v-1.985l1.556-.934-1.556-.934v-1.985z" fill="#ffa32b"/><circle cx="11.923" cy="20.077" fill="#404040" r="10.077"/><circle cx="10" cy="18" fill="#5b5b5b" r="6"/></svg>