<svg clip-rule="evenodd" fill-rule="evenodd" stroke-linejoin="round" stroke-miterlimit="2" viewBox="0 0 32 32" xmlns="http://www.w3.org/2000/svg" xmlns:xlink="http://www.w3.org/1999/xlink"><clipPath id="a"><path clip-rule="evenodd" d="m0 0h32v32h-32z"/></clipPath><clipPath id="b"><circle clip-rule="evenodd" cx="9.5" cy="9.5" r="5.5"/></clipPath><clipPath id="c"><path clip-rule="evenodd" d="m4 22c0-3.036 2.464-5.5 5.5-5.5s5.5 2.464 5.5 5.5-2.464 5.5-5.5 5.5-5.5-2.464-5.5-5.5z"/></clipPath><clipPath id="d"><circle clip-rule="evenodd" cx="22.5" cy="9.5" r="5.5"/></clipPath><clipPath id="e"><path clip-rule="evenodd" d="m18.611 18.111c2.146-2.147 5.632-2.147 7.778 0 2.147 2.146 2.147 5.632 0 7.778-2.146 2.147-5.632 2.147-7.778 0-2.147-2.146-2.147-5.632 0-7.778z"/></clipPath><path d="m0 0h32v32h-32z" fill="none"/><g clip-path="url(#a)"><path d="m32 2c0-.53-.211-1.039-.586-1.414s-.884-.586-1.414-.586h-28c-.53 0-1.039.211-1.414.586s-.586.884-.586 1.414v28c0 .53.211 1.039.586 1.414s.884.586 1.414.586h28c.53 0 1.039-.211 1.414-.586s.586-.884.586-1.414z"/><path d="m2 2h28v28h-28z" fill="#636363"/><g fill="#454545"><path d="m15 9.5h-11v2c0 3.038 2.462 5.5 5.5 5.5 3.038 0 5.5-2.462 5.5-5.5z"/><path d="m15 22.5h-11v2c0 3.038 2.462 5.5 5.5 5.5 3.038 0 5.5-2.462 5.5-5.5z"/><path d="m28 9.5h-11v2c0 3.038 2.462 5.5 5.5 5.5 3.038 0 5.5-2.462 5.5-5.5z"/><path d="m28 22.5h-11v2c0 3.038 2.462 5.5 5.5 5.5 3.038 0 5.5-2.462 5.5-5.5z"/></g><circle cx="9.5" cy="9.5" fill="#191919" r="5.5"/><g clip-path="url(#b)"><path d="m10 3h-1v6.5c0 .276.224.5.5.5.276 0 .5-.224.5-.5 0-1.601 0-6.5 0-6.5z" fill="#e3e3e3"/></g><path d="m4 22c0-3.036 2.464-5.5 5.5-5.5s5.5 2.464 5.5 5.5-2.464 5.5-5.5 5.5-5.5-2.464-5.5-5.5z" fill="#191919"/><g clip-path="url(#c)"><path d="m3 21.5v1h6.5c.276 0 .5-.224.5-.5 0-.276-.224-.5-.5-.5-1.601 0-6.5 0-6.5 0z" fill="#e3e3e3"/></g><circle cx="22.5" cy="9.5" fill="#191919" r="5.5"/><g clip-path="url(#d)"><path d="m23 3h-1v6.5c0 .276.224.5.5.5.276 0 .5-.224.5-.5 0-1.601 0-6.5 0-6.5z" fill="#fff"/></g><path d="m18.611 18.111c2.146-2.147 5.632-2.147 7.778 0 2.147 2.146 2.147 5.632 0 7.778-2.146 2.147-5.632 2.147-7.778 0-2.147-2.146-2.147-5.632 0-7.778z" fill="#191919"/><g clip-path="url(#e)"><path d="m18.257 17.05-.707.707s3.465 3.466 4.597 4.597c.195.195.511.195.706 0 0 0 .001-.001.001-.001.195-.195.195-.511 0-.706-1.131-1.132-4.597-4.597-4.597-4.597z" fill="#e3e3e3"/></g></g></svg>