<svg clip-rule="evenodd" fill-rule="evenodd" stroke-linejoin="round" stroke-miterlimit="1.5" viewBox="0 0 32 32" xmlns="http://www.w3.org/2000/svg" xmlns:xlink="http://www.w3.org/1999/xlink"><clipPath id="a"><path clip-rule="evenodd" d="m0 0h32v32h-32z"/></clipPath><path d="m0 0h32v32h-32z" fill="none"/><g clip-path="url(#a)"><path d="m10.21 28.414c3.04 1.641 6.646 1.872 9.871.632.669-.258 1.36-.523 2.042-.785 3.641-1.401 6.271-4.624 6.912-8.473.231-1.382.458-2.749.635-3.807.215-1.292.046-2.619-.486-3.816-.307-.693-.674-1.517-1.046-2.355-1.371-3.084-3.892-5.511-7.025-6.765-.033-.013-.066-.026-.099-.04-3.229-1.291-6.82-1.347-10.087-.156-.062.022-.124.044-.185.067-2.44.889-4.565 2.477-6.108 4.567-.109.147-.218.294-.326.44-1.476 1.999-2.273 4.418-2.273 6.902v3.221c0 3.668 2.012 7.04 5.239 8.783.971.524 1.98 1.068 2.936 1.585z" fill="none" stroke="#000" stroke-width="4"/><path d="m2.212 19.916c-.117-.61-.177-1.236-.177-1.87 0-1.095 0-2.21 0-3.221 0-2.484.797-4.903 2.273-6.902.108-.146.217-.293.326-.44 1.543-2.09 3.668-3.678 6.108-4.567.061-.023.123-.045.185-.067 3.267-1.191 6.858-1.135 10.087.156.033.014.066.027.099.04 3.133 1.254 5.654 3.681 7.025 6.765.372.838.739 1.662 1.046 2.355.532 1.197.701 2.524.486 3.816-.177 1.058-.404 2.425-.635 3.807v.004c-1.115 2.503-3.141 5.539-5.726 6.647-.953.408-1.939.831-2.885 1.236-3.415 1.464-7.32 1.239-10.544-.608-1.248-.715-2.582-1.479-3.825-2.191-1.656-.949-2.974-3.332-3.843-4.96z" fill="#e5ac50"/><path d="m29.035 19.792c-.643 3.847-3.272 7.068-6.912 8.469-.682.262-1.373.527-2.042.785-3.225 1.24-6.831 1.009-9.871-.632-.956-.517-1.965-1.061-2.936-1.585-2.669-1.441-4.506-3.997-5.062-6.913.869 1.628 2.187 3.011 3.843 3.96 1.243.712 2.577 1.476 3.825 2.191 3.224 1.847 7.129 2.072 10.544.608.946-.405 1.932-.828 2.885-1.236 2.585-1.108 4.611-3.144 5.726-5.647z" fill="#b07c2e"/><g fill="#483313"><path d="m10.245 20c-.52 0-1.009.25-1.313.672s-.387.964-.222 1.458c0 0 0 .001.001.002.172.518.658.868 1.204.868h2.038c.578 0 1.047-.469 1.047-1.047v-.001c0-.518-.206-1.014-.572-1.38s-.862-.572-1.38-.572c-.263 0-.535 0-.803 0z"/><path d="m12.403 10c-.557 0-1.08.268-1.405.719-.326.452-.414 1.033-.238 1.561.016.047.031.093.046.137.116.348.442.583.809.583h1.634c.406 0 .787-.195 1.024-.524s.302-.752.173-1.137c0-.001 0-.001 0-.002-.266-.798-1.014-1.337-1.856-1.337-.061 0-.124 0-.187 0z"/><path d="m17.627 18c-.391 0-.761-.18-1.001-.488-.241-.309-.326-.711-.231-1.09.01-.041.02-.082.03-.123.149-.593.537-1.098 1.073-1.392s1.17-.351 1.75-.158c0 0 .001.001.001.001.449.149.751.569.751 1.041v.939c0 .701-.569 1.27-1.27 1.27-.351 0-.736 0-1.103 0z"/><path d="m19.666 24.583c.535-.133.972-.519 1.17-1.033.199-.514.136-1.093-.17-1.551-.062-.092-.121-.181-.177-.266-.306-.458-.82-.733-1.37-.733 0 0 0 0-.001 0-.509 0-.99.235-1.303.636-.314.402-.425.925-.301 1.419.068.274.137.547.199.798.076.304.27.566.539.727s.591.209.895.133c.166-.041.341-.085.519-.13z"/><path d="m6.68 12c-.417 0-.798.235-.984.608-.16.319-.366.733-.58 1.16-.239.478-.214 1.046.067 1.501.281.454.778.731 1.312.731h.001c.399 0 .781-.158 1.063-.441.283-.282.441-.664.441-1.063v-1.176c0-.35-.139-.686-.387-.933-.247-.248-.583-.387-.933-.387z"/><path d="m23.492 9c-.573 0-1.11.275-1.444.739-.335.464-.426 1.061-.245 1.604v.001c.131.392.498.656.911.656h1.273c.471 0 .914-.227 1.19-.609.275-.383.351-.874.201-1.322-.007-.022-.014-.044-.022-.066-.199-.599-.76-1.003-1.391-1.003-.15 0-.31 0-.473 0z"/><path d="m15.119 4.233c-.478-.053-.951.131-1.267.493-.316.361-.435.855-.318 1.321.03.12.06.24.089.358.102.406.371.749.741.943s.806.222 1.197.075c.371-.139.788-.296 1.226-.46.58-.217.934-.803.858-1.417-.077-.614-.565-1.095-1.179-1.163-.473-.053-.93-.104-1.347-.15z"/><path d="m26.766 15.589c.696.232 1.097.961.919 1.673-.058.229-.119.474-.18.719-.116.462-.449.84-.894 1.012s-.946.117-1.343-.148c-.115-.076-.228-.151-.336-.224-.55-.366-.787-1.056-.578-1.684.057-.17.116-.348.175-.525.125-.374.394-.684.747-.86.353-.177.762-.206 1.136-.081.119.039.238.079.354.118z"/></g></g></svg>