<svg clip-rule="evenodd" fill-rule="evenodd" stroke-linecap="round" stroke-linejoin="round" stroke-miterlimit="3" viewBox="0 0 32 32" xmlns="http://www.w3.org/2000/svg" xmlns:xlink="http://www.w3.org/1999/xlink"><clipPath id="a"><path clip-rule="evenodd" d="m0 0h32v32h-32z"/></clipPath><path d="m0 0h32v32h-32z" fill="none"/><g clip-path="url(#a)"><path d="m32 13c0-1.105-.895-2-2-2-5.746 0-22.254 0-28 0-1.105 0-2 .895-2 2v17c0 1.105.895 2 2 2h28c1.105 0 2-.895 2-2 0-4.01 0-12.99 0-17z"/><path d="m11 6-5-2s1.685-.562 2.529-.843c.312-.104.639-.157.967-.157h1.773c.767 0 1.495.288 2.049.788 1.581-1.022 3.666-.804 5.001.531l.32.32c.514-.409 1.157-.639 1.828-.639h1.258c.813 0 1.59.338 2.145.932.822.881 1.93 2.068 1.93 2.068l-3.889.671 2.419.848c.863.303 1.536.992 1.819 1.862.376 1.156.851 2.619.851 2.619l-6.259-2.889.793 1.19c.304.456.466.991.466 1.539v2.16l-4.645-5.419-1.355 5.419-.615-2.458c-.256 1.381-.385 2.786-.385 4.195v.001c0 .171.051.338.145.48l1.855 2.782h-7s1.103-1.655 1.671-2.506c.217-.326.369-.692.445-1.076.09-.449.222-1.106.356-1.776.351-1.758.863-3.479 1.529-5.144l.09-.225-7.091 4.727s0-.77 0-1.53c0-.929.422-1.808 1.148-2.388l2.602-2.082h-.497c-.168 0-.337.014-.503.042-1.134.189-5.75.958-5.75.958s1.22-1.22 2.104-2.104c.574-.574 1.352-.896 2.163-.896z" fill="none" stroke="#000" stroke-width="4"/><path d="m2 9h12v4h-12z"/><path d="m2 13h28v17h-28z" fill="#54e2ef"/><path d="m4 20s2.267-.907 3.748-1.499c.827-.331 1.71-.501 2.6-.501h11.304c.89 0 1.773.17 2.6.501 1.481.592 3.748 1.499 3.748 1.499s-.749.499-1.717 1.145c-2.793 1.862-6.074 2.855-9.43 2.855-.565 0-1.141 0-1.706 0-3.356 0-6.637-.993-9.43-2.855-.968-.646-1.717-1.145-1.717-1.145z" fill="none" stroke="#e3fafc" stroke-linecap="square" stroke-miterlimit="1.5" stroke-width="4"/><path d="m22.482 23c-1.8.672-3.702 1-5.629 1-.565 0-1.141 0-1.706 0-3.356 0-6.637-.993-9.43-2.855-.968-.646-1.717-1.145-1.717-1.145s1.569-1.569 2.95-2.95c1.313-1.313 3.093-2.05 4.95-2.05h8.2c1.857 0 3.637.737 4.95 2.05 1.381 1.381 2.95 2.95 2.95 2.95l-1.5 1-4.018 1z" fill="#eec470"/><path d="m22.482 23h-1.697c-1.182 0-2.357-.191-3.478-.564-1.775-.592-4.307-1.436-4.307-1.436l4-1s.336.168.733.367c.833.416 1.752.633 2.683.633h6.084l-.217.145c-1.189.793-2.467 1.428-3.801 1.855z" fill="#916711"/><path d="m10 20s1.103-1.655 1.671-2.506c.217-.326.369-.692.445-1.076.09-.449.222-1.106.356-1.776.351-1.758.863-3.479 1.529-5.144.288-.721.576-1.441.769-1.922.139-.348.476-.576.85-.576h.001c.319 0 .619.154.806.413s.238.592.137.895c-.116.348-.247.74-.382 1.147-.783 2.348-1.182 4.807-1.182 7.282v.001c0 .171.051.338.145.48.461.691 1.855 2.782 1.855 2.782s-.318.159-.776.388c-1.993.997-4.369.849-6.224-.388z" fill="#574213"/><path d="m11 6-5-2s1.685-.562 2.529-.843c.312-.104.639-.157.967-.157h1.773c.767 0 1.495.288 2.049.788 1.581-1.022 3.666-.804 5.001.531l.32.32c.514-.409 1.157-.639 1.828-.639h1.258c.813 0 1.59.338 2.145.932.822.881 1.93 2.068 1.93 2.068l-3.889.671 2.419.848c.863.303 1.536.992 1.819 1.862.376 1.156.851 2.619.851 2.619l-6.259-2.889.793 1.19c.304.456.466.991.466 1.539v2.16l-4.645-5.419-1.355 5.419-1.5-6-7.5 5s0-.77 0-1.53c0-.929.422-1.808 1.148-2.388l2.602-2.082h-.497c-.168 0-.337.014-.503.042-1.134.189-5.75.958-5.75.958s1.22-1.22 2.104-2.104c.574-.574 1.352-.896 2.163-.896z" fill="#219555"/></g></svg>