<svg clip-rule="evenodd" fill-rule="evenodd" stroke-linecap="round" stroke-linejoin="round" stroke-miterlimit="1.5" viewBox="0 0 32 32" xmlns="http://www.w3.org/2000/svg" xmlns:xlink="http://www.w3.org/1999/xlink"><clipPath id="a"><path clip-rule="evenodd" d="m0 0h32v32h-32z"/></clipPath><path d="m0 0h32v32h-32z" fill="none"/><g clip-path="url(#a)"><path d="m16 22c2.208 0 4 1.792 4 4s-1.792 4-4 4-4-1.792-4-4 1.792-4 4-4zm-.641-2.144c-1.662-.828-6.147-3.335-8.538-7.299-2.945-4.881-.9-10.28 3.506-10.546 2.554-.153 4.379 1.269 5.196 3.048.073.2.264.334.477.334.214 0 .405-.133.478-.334.816-1.779 2.641-3.201 5.195-3.048 4.406.266 6.451 5.665 3.506 10.546-2.391 3.964-6.876 6.471-8.538 7.3-.406.191-.876.191-1.282-.001z" fill="none" stroke="#000" stroke-width="4"/><path d="m19.948 25.355c.034.21.052.425.052.645 0 2.208-1.792 4-4 4s-4-1.792-4-4c0-.22.018-.435.052-.645.309 1.782 7.587 1.782 7.896 0zm-14.429-18.579c.949 6.143 20.23 5.976 21.003.33.171 1.688-.23 3.606-1.343 5.451-2.391 3.964-6.876 6.471-8.538 7.3-.406.191-.876.191-1.282-.001-1.662-.828-6.147-3.335-8.538-7.299-1.186-1.966-1.563-4.016-1.302-5.781z" fill="#ce0249"/><path d="m12.052 25.355c.309-1.902 1.96-3.355 3.948-3.355s3.639 1.453 3.948 3.355c-.309 1.782-1.96 3.145-3.948 3.145s-3.639-1.363-3.948-3.145zm14.47-18.249c-.773 5.646-8.271 10.37-10.522 10.407-2.444.041-9.532-4.594-10.481-10.737.387-2.617 2.176-4.606 4.808-4.765 2.554-.153 4.379 1.269 5.196 3.048.073.2.264.334.477.334.214 0 .405-.133.478-.334.816-1.779 2.641-3.201 5.195-3.048 2.741.165 4.569 2.317 4.849 5.095z" fill="#ff3c80"/></g></svg>