<svg clip-rule="evenodd" fill-rule="evenodd" stroke-linecap="round" stroke-linejoin="round" stroke-miterlimit="1.5" viewBox="0 0 32 32" xmlns="http://www.w3.org/2000/svg" xmlns:xlink="http://www.w3.org/1999/xlink"><clipPath id="a"><path clip-rule="evenodd" d="m0 0h32v32h-32z"/></clipPath><path d="m0 0h32v32h-32z" fill="none"/><g clip-path="url(#a)"><ellipse cx="16" cy="24" fill="none" rx="14" ry="6" stroke="#000" stroke-width="4"/><path d="m10 18.578 1 1.422v3l-1 .762c-3.931.283-7.031.862-7.558 1.738-.289-.48-.442-.982-.442-1.5 0-2.391 3.272-4.458 8-5.422zm12 0c4.728.964 8 3.031 8 5.422 0 .518-.153 1.02-.442 1.5-.527-.876-3.627-1.455-7.558-1.738l-1-.762v-3z" fill="#bfbfbf"/><path d="m10 18.578c1.819-.37 3.853-.578 6-.578s4.181.208 6 .578v5.184c-3.748-.269-8.252-.269-12 0z" fill="#e5e5e5"/><path d="m2.442 25.5c1.556-2.587 7.04-4.5 13.558-4.5s12.002 1.913 13.558 4.5c-.32.532-.806 1.035-1.433 1.5-4.964-1.503-19.286-1.503-24.25 0-.627-.465-1.113-.968-1.433-1.5z" fill="#404040"/><path d="m3.271 26.5c2.214-2.065 7.083-3.5 12.729-3.5s10.515 1.435 12.729 3.5c-2.214 2.065-7.083 3.5-12.729 3.5s-10.515-1.435-12.729-3.5z" fill="#333"/></g></svg>