<svg clip-rule="evenodd" fill-rule="evenodd" stroke-linejoin="round" stroke-miterlimit="1.41421" viewBox="0 0 32 32" xmlns="http://www.w3.org/2000/svg"><g fill="none"><path d="m0 0v32h32v-32z"/><path d="m2.586 7.586 1-1.002c1.435-1.435 3.384-2.24 5.414-2.24s3.979.805 5.414 2.24l1.586 1.586 1.586-1.586c1.435-1.435 3.384-2.24 5.414-2.24s3.979.805 5.414 2.24l1 1.002v2l-2.828 2.828-1.002-1c-.685-.685-1.614-1.07-2.584-1.07s-1.899.385-2.584 1.07l-.586.586 1.586 1.586c1.739 1.739 2.461 4.132 2.165 6.414.296 2.282-.426 4.675-2.165 6.414l-.002.002c-2.973 2.973-7.855 2.973-10.828 0l-.002-.002c-1.739-1.739-2.461-4.132-2.165-6.414-.296-2.282.426-4.675 2.165-6.414l1.586-1.586-.586-.586c-.685-.685-1.614-1.07-2.584-1.07s-1.899.385-2.584 1.07l-1.002 1-2.828-2.828v-2zm16.941 12.414c-.167-.577-.48-1.123-.941-1.584l-2.586-2.586-2.586 2.586c-.461.461-.774 1.007-.941 1.584.167.577.48 1.123.941 1.584l.002.002c1.443 1.443 3.725 1.443 5.168 0l.002-.002c.461-.461.774-1.007.941-1.584z" stroke="#000" stroke-width="4"/><path d="m8.354 19h15.291v2h-15.291z" stroke="#000" stroke-miterlimit="1.5" stroke-width="4"/></g><path d="m21 19h2.646v2h-2.646z" fill="#747474"/><path d="m8.354 19h2.646v2h-2.646z" fill="#747474"/><path d="m9 6.344c-2.03 0-3.979-.195-5.414 1.24l-1 .002v2l2.828 2.828 1.002-1c.685-.685 1.614-1.07 2.584-1.07s1.899.385 2.584 1.07l1.586 1.586-2.586 2.586c-2.973 2.973-2.973 7.855 0 10.828l.002.002c2.973 2.973 7.855 2.973 10.828 0l.002-.002c2.973-2.973 2.973-7.855 0-10.828l-2.586-2.586 1.586-1.586c.685-.685 1.614-1.07 2.584-1.07s1.899.385 2.584 1.07l1.002 1 2.828-2.828v-2l-1-.002c-1.435-1.435-3.384-1.24-5.414-1.24s-3.979.805-5.414 2.24l-1.586 1.586-1.586-1.586c-1.435-1.435-3.384-2.24-5.414-2.24zm7 9.486 2.586 2.586c1.443 1.443 1.443 3.725 0 5.168l-.002.002c-1.443 1.443-3.725 1.443-5.168 0l-.002-.002c-1.443-1.443-1.443-3.725 0-5.168z" fill="#747474" fill-rule="nonzero"/><path d="m9 4.344c-2.03 0-3.979.805-5.414 2.24l-1 1.002 2.828 2.828 1.002-1c.685-.685 1.614-1.07 2.584-1.07s1.899.385 2.584 1.07l1.586 1.586-2.586 2.586c-2.973 2.973-2.973 7.855 0 10.828l.002.002c2.973 2.973 7.855 2.973 10.828 0l.002-.002c2.973-2.973 2.973-7.855 0-10.828l-2.586-2.586 1.586-1.586c.685-.685 1.614-1.07 2.584-1.07s1.899.385 2.584 1.07l1.002 1 2.828-2.828-1-1.002c-1.435-1.435-3.384-2.24-5.414-2.24s-3.979.805-5.414 2.24l-1.586 1.586-1.586-1.586c-1.435-1.435-3.384-2.24-5.414-2.24zm7 9.486 2.586 2.586c1.443 1.443 1.443 3.725 0 5.168l-.002.002c-1.443 1.443-3.725 1.443-5.168 0l-.002-.002c-1.443-1.443-1.443-3.725 0-5.168z" fill="#fff" fill-rule="nonzero"/></svg>