<svg clip-rule="evenodd" fill-rule="evenodd" stroke-linejoin="round" stroke-miterlimit="2" viewBox="0 0 32 32" xmlns="http://www.w3.org/2000/svg" xmlns:xlink="http://www.w3.org/1999/xlink"><clipPath id="a"><path clip-rule="evenodd" d="m0 0h32v32h-32z"/></clipPath><path d="m0 0h32v32h-32z" fill="none"/><g clip-path="url(#a)"><path d="m20.154.001.155.003.153.005.154.007.152.008.153.011.152.012.151.015.151.016.15.018.15.02.149.022.149.024.148.025.148.028.147.029.146.031.146.033.144.034.145.036.143.038.143.04.142.041.142.043.141.045.139.046.14.049.138.049.138.052.136.053.136.054.135.057.135.057.133.06.133.061.131.062.131.064.13.066.129.067.128.068.127.071.126.071.125.073.125.075.123.075.122.078.121.079.12.08.119.081.119.083.117.085.116.085.114.087.114.089.113.089.112.091.11.093.109.093.109.095.107.096.105.098.105.098.104.1.102.101.101.102.1.104.098.105.098.105.096.108.095.108.093.109.093.11.091.112.089.113.089.114.087.114.085.116.085.117.083.119.081.119.08.12.079.121.078.122.076.123.074.125.073.125.072.126.07.127.068.128.067.129.066.13.064.131.062.131.061.133.06.133.057.134.057.136.054.136.053.137.052.137.049.138.049.139.046.141.045.14.043.142.041.142.04.143.038.143.036.145.034.144.033.146.031.146.029.147.028.148.025.148.024.149.022.149.02.15.018.15.016.151.015.151.012.152.011.152.008.153.007.154.005.153.003.155.001.154-.001.154-.003.155-.005.153-.007.154-.008.153-.011.152-.012.152-.015.151-.016.151-.018.15-.02.15-.022.149-.024.149-.025.148-.028.148-.029.147-.031.146-.033.146-.034.144-.036.145-.038.143-.04.143-.041.142-.043.142-.045.14-.046.141-.049.139-.049.138-.052.137-.053.137-.054.136-.057.135-.057.135-.06.133-.061.133-.062.131-.064.131-.066.13-.067.129-.068.128-.07.127-.072.126-.073.125-.075.125-.075.123-.078.122-.079.121-.08.12-.081.119-.083.119-.085.117-.085.116-.087.114-.089.114-.089.113-.091.112-.093.11-.093.109-.095.108-.096.108-.098.105-.098.105-.1.104-.101.102-.102.101-.104.1-.105.099-.105.097-.107.096-.109.095-.109.093-.11.093-.112.091-.113.089-.114.089-.114.087-.116.085-.117.085-.118.083-.12.081-.12.081-.121.078-.122.077-.123.076-.125.075-.125.073-.126.071-.127.071-.128.068-.129.067-.13.066-.131.064-.131.062-.133.061-.133.06-.135.058-.135.056-.136.054-.136.053-.138.052-.138.049-.14.049-.14.046-.14.045-.142.043-.142.041-.143.04-.143.038-.145.036-.144.034-.146.033-.146.031-.147.029-.148.028-.148.025-.149.024-.149.022-.15.02-.15.018-.151.016-.151.015-.152.012-.152.011-.153.008-.154.007-.153.005-.155.003-.153.001-.127-.001-.126-.002-.125-.003-.126-.004-.124-.006-.125-.007-.124-.009-.124-.009-.124-.011-.123-.012-.123-.014-.123-.014-.122-.016-.122-.017-.122-.019-.121-.019-.121-.021-.12-.022-.12-.023-.12-.024-.119-.026-.118-.026-.119-.028-.118-.029-.117-.031-.117-.031-.116-.032-.116-.034-.116-.035-.115-.036-.114-.037-.114-.038-.114-.039-.113-.04-.112-.042-.112-.042-.111-.044-.111-.044-.11-.046-.11-.047-.109-.048-.109-.049-.108-.049-.107-.051-.107-.052-.106-.053-.092-.047-.013.06-.039.142-.046.139-.053.136-.059.134-.066.131-.072.128-.079.124-.085.12-.09.117-.097.112-.085.09-6.621 6.62-.09.086-.112.097-.117.091-.12.084-.124.079-.128.072-.131.066-.134.059-.136.053-.139.046-.142.039-.143.032-.145.026-.147.018-.147.011-.149.003-.149-.003-.147-.011-.147-.018-.145-.026-.143-.032-.142-.039-.139-.046-.136-.053-.134-.059-.131-.066-.128-.072-.124-.079-.12-.084-.117-.091-.112-.097-.09-.085-1.621-1.621-.085-.09-.097-.112-.09-.117-.085-.12-.079-.124-.072-.128-.066-.131-.059-.134-.053-.136-.046-.139-.039-.142-.032-.143-.026-.145-.018-.147-.011-.147-.003-.149.003-.149.011-.147.019-.147.025-.145.032-.143.039-.142.046-.139.053-.136.059-.134.066-.131.072-.128.079-.124.084-.12.091-.117.097-.112.085-.09 6.621-6.621.09-.085.112-.097.117-.091.12-.084.124-.079.128-.072.131-.066.134-.059.136-.053.139-.046.142-.039.06-.013-.047-.092-.053-.106-.052-.107-.051-.107-.05-.108-.048-.109-.048-.109-.047-.11-.046-.11-.044-.111-.044-.111-.042-.112-.042-.112-.04-.113-.039-.114-.038-.114-.037-.114-.036-.115-.035-.116-.034-.116-.032-.116-.031-.117-.031-.118-.029-.117-.027-.118-.027-.119-.026-.119-.024-.12-.023-.12-.022-.12-.021-.121-.019-.121-.019-.122-.017-.122-.016-.122-.014-.123-.014-.123-.012-.123-.011-.124-.009-.124-.009-.124-.007-.125-.006-.124-.004-.126-.003-.125-.002-.126-.001-.127.001-.154.003-.154.005-.153.007-.154.008-.153.011-.152.012-.152.015-.151.016-.151.018-.15.02-.15.022-.149.024-.149.025-.148.028-.148.029-.147.031-.146.033-.145.034-.145.036-.145.038-.143.04-.143.041-.142.043-.142.045-.14.046-.14.049-.14.049-.138.052-.138.053-.136.054-.136.057-.136.057-.134.06-.133.061-.133.062-.131.064-.131.066-.13.067-.129.068-.128.071-.127.071-.126.073-.125.075-.125.075-.123.078-.122.079-.121.08-.12.081-.12.083-.118.085-.117.085-.116.087-.114.089-.114.089-.113.091-.112.093-.11.093-.109.095-.109.096-.107.097-.105.099-.105.1-.104.101-.102.102-.101.104-.1.105-.098.105-.098.107-.096.109-.095.109-.093.11-.093.112-.091.113-.089.113-.089.115-.087.116-.085.117-.085.119-.083.119-.081.12-.08.121-.079.122-.078.123-.075.125-.075.125-.073.126-.071.127-.071.128-.068.129-.067.13-.066.131-.064.131-.062.133-.061.133-.06.134-.057.136-.057.136-.054.136-.053.138-.052.138-.049.14-.049.14-.046.14-.045.142-.043.142-.041.143-.04.143-.038.145-.036.144-.034.146-.033.146-.031.147-.029.148-.028.148-.025.148-.024.15-.022.15-.02.15-.018.151-.016.151-.015.152-.012.153-.011.152-.008.154-.007.153-.005.155-.003.154-.001.154.001zm-15.326 26.999.172.172 5.364-5.364-.058-.114-.114-.058zm15.068-22.999-.103.002-.103.003-.103.004-.102.006-.102.007-.101.009-.102.009-.1.011-.1.012-.1.014-.1.014-.099.016-.098.017-.098.018-.098.02-.097.02-.097.022-.096.023-.096.024-.095.025-.095.026-.095.028-.094.029-.093.029-.093.031-.093.032-.092.033-.091.034-.091.036-.09.036-.09.037-.09.039-.088.039-.089.041-.087.041-.087.043-.087.044-.086.044-.085.046-.085.047-.084.047-.083.049-.083.05-.082.05-.082.052-.08.052-.081.054-.079.054-.079.056-.078.056-.078.057-.076.058-.076.059-.076.06-.074.061-.074.062-.073.062-.072.064-.072.064-.071.065-.07.066-.069.067-.068.068-.068.068-.067.069-.066.07-.065.071-.064.072-.064.072-.062.073-.062.074-.061.074-.06.076-.059.076-.058.076-.057.078-.056.078-.056.079-.054.079-.054.081-.052.081-.052.081-.05.082-.05.083-.049.083-.047.084-.047.085-.046.085-.044.086-.044.087-.043.087-.041.087-.041.089-.039.088-.039.09-.037.09-.036.09-.036.091-.034.091-.033.092-.032.093-.031.093-.029.093-.029.094-.028.095-.026.094-.025.096-.024.096-.023.096-.022.097-.02.097-.02.098-.018.098-.017.098-.016.099-.014.1-.014.1-.012.1-.011.101-.009.1-.009.102-.007.102-.006.102-.004.103-.003.103-.002.103-.001.105v.084l.002.084.002.084.003.084.004.084.005.083.005.083.007.083.007.083.008.082.009.082.01.082.01.081.012.081.012.081.013.081.014.08.014.081.016.079.016.08.017.079.018.079.018.078.019.079.02.078.021.077.022.078.022.077.023.077.024.076.025.076.025.076.026.075.027.075.027.075.029.074.029.074.029.074.031.073.031.073.032.073.032.072.033.072.034.071.035.071.035.071.036.07.036.07.038.07.038.069.038.069.04.068.04.068.04.067.041.067.042.067.043.066.043.066.044.065.044.065.045.064.046.064.046.064.731.982.981.73.064.046.064.046.064.045.065.044.065.044.066.043.066.043.067.042.067.041.067.04.068.04.068.04.069.038.069.038.07.038.07.036.07.036.071.035.071.035.071.034.072.033.072.033.073.031.073.031.073.031.074.029.074.029.074.029.075.027.075.027.075.026.076.025.076.025.076.024.077.023.077.022.078.022.077.021.078.02.078.019.079.018.079.018.079.017.08.016.079.016.08.014.081.014.081.013.08.012.082.012.081.01.082.01.082.009.082.008.083.007.083.007.083.005.083.005.084.004.084.003.084.002.084.002h.084l.105-.001.103-.002.103-.003.103-.004.102-.006.102-.007.101-.009.102-.009.1-.011.1-.012.1-.014.1-.014.099-.016.098-.017.098-.018.098-.02.097-.02.097-.022.096-.023.096-.024.095-.025.095-.026.095-.028.094-.029.093-.029.093-.031.093-.032.092-.033.091-.034.091-.036.09-.036.09-.037.09-.039.088-.039.089-.041.087-.041.087-.043.087-.044.086-.044.085-.046.084-.047.085-.047.083-.049.083-.05.082-.05.082-.052.08-.052.081-.054.079-.054.079-.056.078-.056.077-.057.077-.058.076-.06.076-.059.074-.061.074-.062.073-.062.072-.064.072-.064.071-.065.07-.066.069-.067.068-.068.068-.068.067-.069.066-.07.065-.071.064-.071.064-.073.062-.073.062-.074.061-.074.06-.076.059-.076.058-.076.057-.078.056-.078.056-.079.054-.079.054-.081.052-.081.052-.081.05-.082.05-.083.049-.083.047-.084.047-.085.046-.085.044-.086.044-.087.043-.087.041-.087.041-.089.039-.088.039-.09.037-.09.036-.09.036-.091.034-.091.033-.092.032-.093.031-.093.029-.093.029-.094.028-.095.026-.095.025-.095.024-.096.023-.096.022-.097.02-.097.02-.098.018-.098.017-.098.016-.099.014-.1.014-.1.012-.1.011-.101.009-.1.009-.102.007-.102.006-.102.004-.103.003-.103.002-.103.001-.104-.001-.104-.002-.103-.003-.103-.004-.103-.006-.102-.007-.102-.009-.102-.009-.1-.011-.101-.012-.1-.014-.1-.014-.1-.016-.099-.017-.098-.018-.098-.02-.098-.02-.097-.022-.097-.023-.096-.024-.096-.025-.095-.026-.095-.028-.095-.029-.094-.029-.093-.031-.093-.032-.093-.033-.092-.034-.091-.036-.091-.036-.09-.037-.09-.039-.09-.039-.088-.041-.089-.041-.087-.043-.087-.044-.087-.044-.086-.046-.085-.047-.085-.047-.084-.049-.083-.05-.083-.05-.082-.052-.081-.052-.081-.054-.081-.054-.079-.056-.079-.056-.078-.057-.078-.058-.076-.059-.076-.06-.076-.061-.074-.062-.074-.062-.073-.064-.073-.064-.071-.065-.071-.066-.07-.067-.069-.068-.068-.068-.068-.069-.067-.07-.066-.071-.065-.072-.064-.072-.064-.073-.062-.074-.062-.074-.061-.076-.059-.076-.06-.077-.058-.077-.057-.078-.056-.079-.056-.079-.054-.081-.054-.08-.052-.082-.052-.082-.05-.083-.05-.083-.049-.085-.047-.084-.047-.085-.046-.086-.044-.087-.044-.087-.043-.087-.041-.089-.041-.088-.039-.09-.039-.09-.037-.09-.036-.091-.036-.091-.034-.092-.033-.093-.032-.093-.031-.093-.029-.094-.029-.095-.028-.095-.026-.095-.025-.096-.024-.096-.023-.097-.022-.097-.02-.098-.02-.098-.018-.098-.017-.099-.016-.1-.014-.1-.014-.1-.012-.1-.011-.102-.009-.101-.009-.102-.007-.102-.006-.103-.004-.103-.003-.103-.002-.104-.001-.104.001z"/><path d="m12.001 17.999c-1.256-1.672-2.001-3.749-2.001-5.999 0-5.519 4.481-10 10-10s10 4.481 10 10-4.481 10-10 10c-2.25 0-4.327-.745-5.999-2.001l-3.001 3.001-2-2z" fill="#cdcdcd"/><path d="m12.293 21.293c.187.187.293.442.293.707s-.106.52-.293.707c-1.517 1.517-5.069 5.069-6.586 6.586-.187.187-.442.293-.707.293s-.52-.106-.707-.293c-.478-.478-1.108-1.108-1.586-1.586-.187-.187-.293-.442-.293-.707s.106-.52.293-.707l6.586-6.586c.187-.187.442-.293.707-.293s.52.106.707.293z" fill="#4c4c4c"/><path d="m14.481 18.463c-1.824-1.559-2.981-3.877-2.981-6.463 0-4.691 3.809-8.5 8.5-8.5 2.586 0 4.904 1.157 6.463 2.981-1.485-1.269-13.251 10.497-11.982 11.982z" fill="#20a0b9"/><path d="m14.481 18.463c-1.269-1.485-2.037-3.413-2.037-5.519 0-4.691 3.809-8.5 8.5-8.5 2.106 0 4.034.768 5.519 2.037 1.27 1.486 2.037 3.414 2.037 5.519 0 4.691-3.809 8.5-8.5 8.5-2.105 0-4.033-.767-5.519-2.037z" fill="#30bfdb"/><circle cx="22.5" cy="9.5" fill="#7ed7e9" r="4.5"/></g></svg>