<svg clip-rule="evenodd" fill-rule="evenodd" stroke-linejoin="round" stroke-miterlimit="2" viewBox="0 0 32 32" xmlns="http://www.w3.org/2000/svg" xmlns:xlink="http://www.w3.org/1999/xlink"><clipPath id="a"><path clip-rule="evenodd" d="m0 0h32v32h-32z"/></clipPath><path d="m0 0h32v32h-32z" fill="none"/><g clip-path="url(#a)"><path d="m12.569.001.154.003.154.005.153.007.153.008.152.011.152.012.151.015.151.016.151.018.149.02.15.022.148.024.149.026.147.027.147.029.146.031.146.033.145.034.144.036.144.038.142.04.143.041.141.043.141.045.14.046.139.049.138.049.138.052.137.053.136.054.135.057.134.057.133.06.133.061.132.062.13.064.13.066.129.067.128.068.127.071.126.071.126.073.124.075.123.075.122.078.121.079.121.08.119.081.118.083.117.085.116.085.115.087.113.089.113.089.112.091.11.093.11.093.108.095.107.096.106.098.104.098.104.1.102.101.101.102.1.104.099.105.097.105.096.107.095.109.094.109.092.11.091.112.09.113.088.114.087.114.086.116.084.117.083.119.081.119.081.12.078.121.078.122.076.123.074.125.073.125.072.126.07.127.068.128.067.129.066.13.064.131.063.131.06.133.06.133.058.135.056.135.055.136.053.136.051.138.05.138.048.14.046.14.045.14.043.142.041.142.04.143.038.143.036.145.035.144.032.146.031.146.029.147.028.148.025.148.024.148.022.15.02.15.018.15.016.151.015.151.012.152.011.152.009.153.006.154.005.153.003.154.001.154v.127l-.002.126-.004.125-.004.126-.006.124-.007.125-.008.124-.01.124-.011.124-.012.123-.013.123-.015.123-.016.122-.017.122-.018.122-.02.121-.021.121-.022.12-.023.12-.024.12-.026.119-.026.118-.028.119-.029.118-.03.117-.032.117-.032.116-.034.116-.035.116-.035.115-.037.114-.039.114-.039.114-.04.113-.041.112-.043.112-.044.111-.044.111-.046.11-.047.11-.048.109-.048.109-.05.108-.051.107-.052.107-.053.106-.047.092.061.013.141.039.139.046.136.053.134.059.131.066.128.072.124.079.12.084.117.091.112.097.09.085 6.621 6.621.085.09.097.112.091.116.085.121.078.125.072.127.066.131.059.134.053.136.046.139.039.141.032.144.026.145.018.146.011.148.004.149-.004.149-.011.148-.018.146-.026.145-.032.143-.039.141-.046.14-.053.136-.059.134-.066.131-.072.128-.078.124-.085.12-.091.117-.097.112-.085.09-1.621 1.62-.09.086-.112.097-.117.091-.12.084-.124.079-.128.072-.131.066-.133.059-.137.053-.139.046-.142.039-.143.032-.145.026-.146.018-.148.011-.149.003-.148-.003-.148-.011-.147-.018-.145-.026-.143-.032-.142-.039-.139-.046-.136-.053-.134-.059-.131-.066-.127-.072-.124-.079-.121-.084-.117-.091-.112-.097-.09-.086-6.62-6.62-.086-.09-.097-.112-.09-.117-.085-.12-.078-.124-.073-.128-.066-.131-.059-.134-.052-.136-.046-.139-.04-.142-.013-.06-.092.047-.106.053-.107.052-.107.051-.108.049-.109.049-.109.048-.109.047-.111.046-.111.044-.111.044-.112.042-.112.042-.113.04-.114.039-.114.038-.114.037-.115.036-.116.035-.116.034-.116.032-.117.031-.117.031-.118.029-.118.028-.119.026-.119.026-.12.024-.12.023-.12.022-.121.021-.121.019-.122.019-.122.017-.122.016-.122.014-.123.014-.124.012-.123.011-.124.009-.125.009-.124.007-.125.006-.126.004-.125.003-.126.002-.127.001-.153-.001-.154-.003-.154-.005-.153-.007-.153-.008-.153-.011-.152-.012-.151-.015-.151-.016-.15-.018-.15-.02-.149-.022-.149-.024-.148-.025-.148-.028-.146-.029-.147-.031-.145-.033-.145-.034-.144-.036-.144-.038-.143-.04-.142-.041-.142-.043-.14-.045-.14-.046-.139-.049-.139-.049-.137-.052-.137-.053-.136-.054-.135-.056-.135-.058-.133-.06-.133-.061-.131-.062-.131-.064-.13-.066-.129-.067-.128-.068-.127-.071-.126-.071-.125-.073-.124-.075-.124-.076-.122-.077-.121-.078-.12-.081-.119-.081-.118-.083-.117-.085-.116-.085-.115-.087-.114-.089-.113-.089-.111-.091-.111-.093-.109-.093-.108-.095-.107-.096-.106-.097-.105-.099-.103-.1-.103-.101-.101-.102-.1-.104-.098-.105-.098-.105-.096-.108-.095-.108-.093-.109-.093-.11-.091-.112-.089-.113-.089-.114-.087-.114-.085-.116-.085-.117-.083-.119-.081-.119-.08-.12-.079-.121-.077-.122-.076-.123-.075-.125-.073-.125-.071-.126-.07-.127-.069-.128-.067-.129-.066-.13-.064-.131-.062-.131-.061-.133-.059-.133-.058-.135-.056-.135-.055-.136-.053-.137-.052-.137-.049-.138-.048-.139-.047-.141-.045-.14-.043-.142-.041-.142-.04-.143-.038-.143-.036-.145-.034-.144-.033-.146-.031-.146-.029-.147-.027-.148-.026-.148-.024-.149-.021-.149-.02-.15-.019-.15-.016-.151-.014-.151-.013-.152-.011-.152-.008-.153-.007-.154-.005-.153-.003-.155-.001-.154.001-.154.003-.155.005-.153.007-.154.008-.153.011-.152.013-.152.014-.151.016-.151.019-.15.02-.15.021-.149.024-.149.026-.148.027-.148.029-.147.031-.146.033-.146.034-.144.036-.145.038-.143.04-.143.041-.142.043-.142.045-.14.047-.141.048-.139.049-.138.052-.137.053-.137.055-.136.056-.136.058-.134.059-.133.061-.133.062-.131.064-.131.066-.13.067-.129.069-.128.07-.127.071-.126.073-.125.075-.125.076-.123.077-.122.079-.121.08-.12.081-.119.083-.119.085-.117.085-.116.087-.114.089-.114.09-.113.09-.112.093-.11.093-.109.095-.108.096-.108.098-.105.098-.105.1-.104.101-.102.103-.101.103-.1.105-.098.106-.098.107-.096.108-.095.109-.093.111-.093.111-.091.113-.089.114-.089.115-.087.116-.085.117-.085.118-.083.119-.081.12-.08.121-.079.122-.078.124-.075.124-.075.125-.073.126-.071.127-.071.128-.068.129-.067.13-.066.131-.064.132-.062.132-.061.133-.06.135-.057.135-.057.136-.054.137-.053.137-.052.139-.049.139-.049.14-.046.14-.045.142-.043.142-.041.143-.04.143-.038.145-.036.145-.034.145-.033.147-.031.146-.029.148-.028.148-.025.149-.024.149-.022.15-.02.15-.018.151-.016.151-.015.152-.012.153-.011.153-.008.153-.007.154-.005.154-.003.154-.001.155.001zm9.539 21.693-.058.114 5.364 5.364.172-.172-5.364-5.364zm-9.798-17.693-.103.002-.103.003-.103.004-.102.006-.102.007-.101.009-.101.009-.101.011-.1.012-.1.014-.099.014-.099.016-.099.017-.098.018-.098.02-.097.02-.097.022-.096.023-.096.024-.095.025-.095.026-.095.028-.094.029-.093.029-.093.031-.093.032-.091.033-.092.034-.091.036-.09.036-.09.037-.089.039-.089.039-.088.041-.088.041-.087.043-.087.044-.085.044-.086.046-.084.047-.084.047-.084.049-.083.05-.082.05-.081.052-.081.052-.08.054-.08.054-.079.056-.078.056-.077.057-.077.058-.076.06-.075.059-.075.061-.074.062-.073.062-.072.064-.072.064-.071.065-.07.066-.069.067-.068.068-.068.068-.067.069-.066.07-.065.071-.064.071-.063.073-.063.073-.062.074-.06.074-.06.076-.059.076-.058.076-.058.078-.056.078-.055.079-.055.079-.053.081-.053.081-.052.081-.05.082-.05.083-.049.083-.047.085-.047.084-.045.085-.045.086-.044.087-.043.087-.041.087-.041.089-.039.088-.039.09-.037.09-.036.09-.035.091-.035.091-.033.092-.032.093-.031.093-.029.093-.029.094-.027.095-.027.095-.025.095-.024.096-.023.096-.022.097-.02.097-.02.098-.018.098-.017.098-.015.099-.015.1-.013.1-.012.1-.011.101-.01.1-.008.102-.007.102-.006.102-.005.103-.003.103-.002.103-.001.104.001.104.002.103.003.103.005.103.006.102.007.102.008.102.01.1.011.101.012.1.013.1.015.1.015.099.017.098.018.098.02.098.02.097.022.097.023.096.024.096.025.095.027.095.027.095.029.094.029.093.031.093.032.093.033.092.035.091.035.091.036.09.037.09.039.09.039.088.041.089.041.087.043.087.044.087.045.086.045.085.047.084.047.085.049.083.05.083.05.082.052.081.053.081.053.081.055.079.055.079.056.078.058.078.058.076.059.076.06.076.06.074.062.074.063.073.063.073.064.071.065.071.066.07.067.069.068.068.068.068.069.067.07.066.071.065.072.064.072.064.073.062.074.062.075.061.075.059.076.06.077.058.077.057.078.056.079.056.08.054.08.054.081.052.081.052.082.05.083.05.084.049.084.047.084.047.086.046.085.044.087.044.087.043.088.041.088.041.089.039.089.039.09.037.09.036.091.036.092.034.091.033.093.032.093.031.093.029.094.029.095.028.095.026.095.025.096.024.096.023.097.022.097.02.098.02.098.018.099.017.099.016.099.014.1.014.1.012.101.011.101.009.101.009.102.007.102.006.103.004.103.003.103.002.105.001h.084l.084-.002.085-.002.083-.003.084-.004.083-.005.083-.005.083-.007.083-.007.082-.008.082-.009.082-.01.082-.01.081-.012.081-.012.08-.013.081-.014.08-.014.079-.016.08-.016.079-.017.079-.018.079-.018.078-.019.078-.02.078-.021.077-.022.077-.022.077-.023.076-.024.076-.025.076-.025.075-.026.075-.027.075-.027.075-.029.074-.029.073-.029.073-.031.073-.031.073-.031.072-.033.072-.033.072-.034.071-.035.07-.035.071-.036.069-.036.07-.038.069-.038.069-.038.068-.04.068-.039.067-.041.067-.041.067-.042.066-.043.066-.043.065-.044.065-.044.064-.045.064-.046.064-.046.982-.731.73-.981.046-.064.046-.064.045-.064.045-.065.043-.065.044-.066.042-.066.042-.067.041-.067.041-.067.04-.068.039-.069.039-.068.037-.069.038-.07.036-.07.036-.07.036-.071.034-.071.034-.071.033-.072.033-.072.032-.073.031-.073.03-.073.03-.074.029-.074.028-.074.027-.075.027-.075.026-.075.026-.076.024-.076.024-.077.023-.076.022-.077.022-.078.021-.077.02-.078.019-.078.019-.079.017-.079.017-.079.017-.08.015-.079.015-.08.013-.081.013-.081.013-.08.011-.082.011-.081.009-.082.009-.082.008-.082.008-.083.006-.083.006-.083.004-.083.004-.084.003-.084.002-.084.002-.084v-.084-.105l-.002-.103-.004-.103-.004-.103-.006-.102-.007-.102-.009-.101-.009-.102-.011-.1-.012-.1-.014-.1-.014-.1-.016-.099-.017-.098-.018-.098-.019-.098-.021-.097-.022-.097-.023-.096-.024-.096-.025-.096-.026-.094-.028-.095-.028-.094-.03-.093-.031-.093-.032-.093-.033-.092-.034-.091-.035-.091-.037-.091-.037-.089-.038-.09-.04-.088-.04-.089-.042-.087-.043-.087-.043-.087-.045-.086-.046-.085-.046-.085-.048-.084-.049-.083-.049-.083-.051-.082-.052-.082-.052-.08-.054-.08-.054-.08-.056-.079-.056-.078-.057-.078-.058-.076-.059-.076-.06-.076-.061-.074-.062-.074-.062-.073-.064-.072-.064-.072-.065-.071-.066-.07-.067-.069-.067-.069-.069-.067-.069-.067-.07-.066-.071-.065-.071-.064-.073-.064-.073-.062-.074-.062-.074-.061-.075-.06-.077-.059-.076-.058-.078-.057-.078-.056-.079-.056-.079-.054-.08-.054-.081-.052-.082-.052-.082-.05-.083-.05-.083-.049-.084-.047-.085-.047-.085-.046-.086-.044-.087-.044-.087-.043-.087-.041-.088-.041-.089-.039-.089-.039-.09-.037-.091-.036-.091-.036-.091-.034-.092-.033-.093-.032-.093-.031-.093-.029-.094-.029-.094-.028-.095-.026-.096-.025-.096-.024-.096-.023-.097-.022-.097-.02-.098-.02-.098-.018-.098-.017-.099-.016-.1-.014-.099-.014-.101-.012-.1-.011-.101-.009-.102-.009-.102-.007-.102-.006-.103-.004-.103-.003-.103-.002-.104-.001-.104.001z"/><path d="m20.413 17.999c1.257-1.672 2.001-3.749 2.001-5.999 0-5.519-4.481-10-10-10s-10 4.481-10 10 4.481 10 10 10c2.25 0 4.328-.745 5.999-2.001l3.001 3.001 2-2z" fill="#cdcdcd"/><path d="m20.121 21.293c-.187.187-.293.442-.293.707s.106.52.293.707c1.517 1.517 5.069 5.069 6.586 6.586.188.187.442.293.707.293s.52-.106.707-.293c.479-.478 1.108-1.108 1.586-1.586.188-.187.293-.442.293-.707s-.105-.52-.293-.707c-1.517-1.517-5.069-5.069-6.586-6.586-.187-.187-.442-.293-.707-.293s-.519.106-.707.293c-.478.478-1.107 1.108-1.586 1.586z" fill="#4c4c4c"/><path d="m6.896 18.463c-1.825-1.559-2.982-3.877-2.982-6.463 0-4.691 3.809-8.5 8.5-8.5 2.586 0 4.904 1.157 6.463 2.981-1.485-1.269-13.251 10.497-11.981 11.982z" fill="#20a0b9"/><path d="m6.896 18.463c-1.27-1.485-2.037-3.413-2.037-5.519 0-4.691 3.808-8.5 8.5-8.5 2.105 0 4.033.768 5.518 2.037 1.27 1.486 2.037 3.414 2.037 5.519 0 4.691-3.809 8.5-8.5 8.5-2.105 0-4.033-.767-5.518-2.037z" fill="#30bfdb"/><circle cx="14.914" cy="9.5" fill="#7ed7e9" r="4.5"/></g></svg>