<svg clip-rule="evenodd" fill-rule="evenodd" stroke-linejoin="round" viewBox="0 0 32 32" xmlns="http://www.w3.org/2000/svg"><path d="m0 0h32v32h-32z" fill="none"/><path d="m3.414 8.414c-.781-.781-.781-2.047 0-2.828.68-.68 1.492-1.492 2.172-2.172.781-.781 2.047-.781 2.828 0 4.561 4.561 18.586 18.586 18.586 18.586l2 7-7-2s-14.025-14.025-18.586-18.586z" fill="none" stroke="#000" stroke-width="4"/><path d="m22 27v-1l4-4h1l2 7z" fill="#fff"/><path d="m3.414 8.414c-.781-.781-.781-2.047 0-2.828.68-.68 1.492-1.492 2.172-2.172.781-.781 2.047-.781 2.828 0 .778.778 1.586 1.586 1.586 1.586v1l-4 4h-1s-.808-.808-1.586-1.586z" fill="#e06e8c"/><path d="m25.939 20.939.061 1.061-4 4-1.061-.061-13.939-13.939v-1l4-4h1z" fill="#e4d20b"/><path d="m8 10 15 15 2-2-15-15z" fill="#78701a"/><path d="m27 22-5 5-1.061-1.061 5-5z" fill="#78701a" fill-rule="nonzero"/><path d="m10 5-5 5 2 2 5-5z" fill="#727272"/></svg>