<svg clip-rule="evenodd" fill-rule="evenodd" stroke-linecap="round" stroke-linejoin="round" stroke-miterlimit="1.5" viewBox="0 0 32 32" xmlns="http://www.w3.org/2000/svg" xmlns:xlink="http://www.w3.org/1999/xlink"><clipPath id="a"><path clip-rule="evenodd" d="m0 0h32v32h-32z"/></clipPath><clipPath id="b"><path clip-rule="evenodd" d="m12 5.5c0-.133.053-.26.146-.354.094-.093.221-.146.354-.146h7c.133 0 .26.053.354.146.093.094.146.221.146.354v1c0 .133-.053.26-.146.354-.094.093-.221.146-.354.146-.25 0-.5 0-.5 0v3.839c0 .718.385 1.381 1.008 1.737.441.252.991.566 1.578.902 2.73 1.559 4.414 4.462 4.414 7.606v.832c0 2.144-.852 4.2-2.368 5.716s-3.572 2.368-5.716 2.368c-1.263 0-2.569 0-3.832 0-2.144 0-4.2-.852-5.716-2.368s-2.368-3.572-2.368-5.716c0-.28 0-.558 0-.832 0-3.144 1.684-6.047 4.414-7.606.587-.336 1.137-.65 1.578-.902.623-.356 1.008-1.019 1.008-1.737 0-1.477 0-3.839 0-3.839s-.25 0-.5 0c-.133 0-.26-.053-.354-.146-.093-.094-.146-.221-.146-.354 0-.305 0-.695 0-1z"/></clipPath><path d="m0 0h32v32h-32z" fill="none"/><g clip-path="url(#a)"><path d="m12 5.5c0-.133.053-.26.146-.354.094-.093.221-.146.354-.146h7c.133 0 .26.053.354.146.093.094.146.221.146.354v1c0 .133-.053.26-.146.354-.094.093-.221.146-.354.146-.25 0-.5 0-.5 0v3.839c0 .718.385 1.381 1.008 1.737.441.252.991.566 1.578.902 2.73 1.559 4.414 4.462 4.414 7.606v.832c0 2.144-.852 4.2-2.368 5.716s-3.572 2.368-5.716 2.368c-1.263 0-2.569 0-3.832 0-2.144 0-4.2-.852-5.716-2.368s-2.368-3.572-2.368-5.716c0-.28 0-.558 0-.832 0-3.144 1.684-6.047 4.414-7.606.587-.336 1.137-.65 1.578-.902.623-.356 1.008-1.019 1.008-1.737 0-1.477 0-3.839 0-3.839s-.25 0-.5 0c-.133 0-.26-.053-.354-.146-.093-.094-.146-.221-.146-.354 0-.305 0-.695 0-1z" stroke="#000" stroke-width="4"/><path d="m14 2h4v5h-4z" fill="#63401e" stroke="#000" stroke-width="4"/><path d="m12 5.5c0-.133.053-.26.146-.354.094-.093.221-.146.354-.146h7c.133 0 .26.053.354.146.093.094.146.221.146.354v1c0 .133-.053.26-.146.354-.094.093-.221.146-.354.146-.25 0-.5 0-.5 0v3.839c0 .718.385 1.381 1.008 1.737.441.252.991.566 1.578.902 2.73 1.559 4.414 4.462 4.414 7.606v.832c0 2.144-.852 4.2-2.368 5.716s-3.572 2.368-5.716 2.368c-1.263 0-2.569 0-3.832 0-2.144 0-4.2-.852-5.716-2.368s-2.368-3.572-2.368-5.716c0-.28 0-.558 0-.832 0-3.144 1.684-6.047 4.414-7.606.587-.336 1.137-.65 1.578-.902.623-.356 1.008-1.019 1.008-1.737 0-1.477 0-3.839 0-3.839s-.25 0-.5 0c-.133 0-.26-.053-.354-.146-.093-.094-.146-.221-.146-.354 0-.305 0-.695 0-1z" fill="#d8d8d8"/><g clip-path="url(#b)"><path d="m6 13h21v18h-21z" fill="#ff4586"/><path d="m6 12h21v3h-21z" fill="#ff8fb6"/><path d="m16 12c0 .62-.325 1.195-.857 1.514-.001.001-.001.001-.002.001-2.569 1.542-4.141 4.318-4.141 7.315v.503c0 2.938 1.383 5.704 3.734 7.467.167.126.266.2.266.2v2h-11v-24h12z" fill="#fff" fill-opacity=".494118"/></g><path d="m19.5 5 .025.001.024.001.025.003.024.005.024.005.023.007.024.007.022.009.023.01.021.011.022.012.02.013.02.014.02.015.019.016.018.017.017.018.016.019.015.02.014.02.013.02.012.022.011.021.01.023.009.022.007.024.007.023.005.024.005.024.003.025.001.024.001.025v1l-.001.025-.001.024-.003.025-.005.024-.005.024-.007.023-.007.024-.009.022-.01.023-.011.021-.012.022-.013.02-.014.02-.015.02-.016.019-.017.018-.018.017-.019.016-.02.015-.02.014-.02.013-.022.012-.021.011-.023.01-.022.009-.024.007-.023.007-.024.005-.024.005-.025.003-.024.001-.025.001h-.5v3.839l.001.067.003.067.006.067.008.065.01.066.012.065.014.064.016.063.018.063.02.062.022.062.025.06.026.06.028.059.029.057.032.057.034.056.035.054.037.054.039.052.041.051.042.05.044.048.045.047.048.046.048.044.051.042.052.041.053.04.055.038.056.036.058.034 1.578.902.127.074.126.076.124.078.123.08.12.081.12.084.117.085.116.087.115.089.113.091.111.092.109.094.108.096.106.098.104.099.102.1.101.102.099.104.097.105.095.107.094.108.091.11.09.11.088.113.086.114.084.115.083.116.08.118.078.119.077.12.074.121.073.123.07.123.069.125.066.126.064.127.063.128.06.13.058.13.056.131.054.132.052.133.05.134.047.135.045.135.044.137.04.137.039.138.037.139.034.14.032.14.03.141.027.142.025.142.023.143.02.143.018.144.016.145.013.145.011.145.009.146.006.147.004.147.001.147v.832l-.001.101-.001.1-.004.1-.004.1-.006.1-.006.099-.008.1-.01.099-.01.099-.012.099-.013.099-.014.098-.015.098-.016.098-.018.097-.019.098-.02.097-.021.096-.022.097-.024.096-.024.095-.026.096-.027.095-.028.094-.03.094-.03.094-.032.094-.032.093-.034.092-.035.093-.036.091-.037.092-.039.091-.039.09-.041.09-.041.089-.043.089-.044.089-.044.087-.046.088-.047.087-.048.086-.05.085-.05.086-.051.084-.052.084-.054.083-.054.083-.056.082-.056.082-.058.08-.058.081-.06.079-.06.079-.062.078-.063.077-.063.077-.065.076-.066.075-.066.075-.068.074-.069.073-.069.072-.071.071-.071.071-.072.069-.073.069-.074.068-.075.066-.075.066-.076.065-.077.063-.077.063-.078.062-.079.06-.079.06-.081.058-.08.058-.082.056-.082.056-.083.054-.083.054-.084.052-.084.051-.086.05-.085.05-.086.048-.087.047-.088.046-.087.044-.089.044-.089.043-.089.041-.09.041-.09.039-.091.039-.092.037-.091.036-.093.035-.092.034-.093.032-.094.032-.094.03-.094.03-.094.028-.095.027-.096.026-.095.024-.096.024-.097.022-.096.021-.097.02-.098.019-.097.018-.098.016-.098.015-.098.014-.099.013-.099.012-.099.01-.099.01-.1.008-.099.006-.1.006-.1.004-.1.004-.1.001-.101.001h-3.832l-.101-.001-.1-.001-.1-.004-.1-.004-.1-.006-.099-.006-.1-.008-.099-.01-.099-.01-.099-.012-.099-.013-.098-.014-.098-.015-.098-.016-.097-.018-.098-.019-.097-.02-.096-.021-.097-.022-.096-.024-.095-.024-.096-.026-.095-.027-.094-.028-.094-.03-.094-.03-.094-.032-.093-.032-.092-.034-.093-.035-.091-.036-.092-.037-.091-.039-.09-.039-.09-.041-.089-.041-.089-.043-.089-.044-.087-.044-.088-.046-.087-.047-.086-.048-.085-.05-.086-.05-.084-.051-.084-.052-.083-.054-.083-.054-.082-.056-.082-.056-.08-.058-.081-.058-.079-.06-.079-.06-.078-.062-.077-.063-.077-.063-.076-.065-.075-.066-.075-.066-.074-.068-.073-.069-.072-.069-.071-.071-.071-.071-.069-.072-.069-.073-.068-.074-.066-.075-.066-.075-.065-.076-.063-.077-.063-.077-.062-.078-.06-.079-.06-.079-.058-.081-.058-.08-.056-.082-.056-.082-.054-.083-.054-.083-.052-.084-.051-.084-.05-.086-.05-.085-.048-.086-.047-.087-.046-.088-.044-.087-.044-.089-.043-.089-.041-.089-.041-.09-.039-.09-.039-.091-.037-.092-.036-.091-.035-.093-.034-.092-.032-.093-.032-.094-.03-.094-.03-.094-.028-.094-.027-.095-.026-.096-.024-.095-.024-.096-.022-.097-.021-.096-.02-.097-.019-.098-.018-.097-.016-.098-.015-.098-.014-.098-.013-.099-.012-.099-.01-.099-.01-.099-.008-.1-.006-.099-.006-.1-.004-.1-.004-.1-.001-.1-.001-.101v-.832l.001-.147.004-.147.006-.147.009-.146.011-.145.013-.145.016-.145.018-.144.02-.143.023-.143.025-.142.027-.142.03-.141.032-.14.034-.14.037-.139.039-.138.04-.137.044-.137.045-.135.047-.135.05-.134.052-.133.054-.132.056-.131.058-.13.06-.13.063-.128.064-.127.066-.126.069-.125.07-.123.073-.123.074-.121.077-.12.078-.119.08-.118.083-.116.084-.115.086-.114.088-.113.09-.11.091-.11.094-.108.095-.107.097-.105.099-.104.101-.102.102-.1.104-.099.106-.098.108-.096.109-.094.111-.092.113-.091.115-.089.116-.087.117-.085.12-.084.12-.081.123-.08.124-.078.126-.076.127-.074 1.578-.902.058-.034.056-.036.055-.038.053-.04.052-.041.051-.042.048-.044.048-.046.045-.047.044-.048.042-.05.041-.051.039-.052.037-.054.035-.054.034-.056.032-.057.029-.057.028-.059.026-.06.025-.06.022-.062.02-.062.018-.063.016-.063.014-.064.012-.065.01-.066.008-.065.006-.067.003-.067.001-.067v-3.839h-.5l-.025-.001-.024-.001-.025-.003-.024-.005-.024-.005-.023-.007-.024-.007-.022-.009-.023-.01-.021-.011-.022-.012-.02-.013-.02-.014-.02-.015-.019-.016-.018-.017-.017-.018-.016-.019-.015-.02-.014-.02-.013-.02-.012-.022-.011-.021-.01-.023-.009-.022-.007-.024-.007-.023-.005-.024-.005-.024-.003-.025-.001-.024-.001-.025v-1l.001-.025.001-.024.003-.025.005-.024.005-.024.007-.023.007-.024.009-.022.01-.023.011-.021.012-.022.013-.02.014-.02.015-.02.016-.019.017-.018.018-.017.019-.016.02-.015.02-.014.02-.013.022-.012.021-.011.023-.01.022-.009.024-.007.023-.007.024-.005.024-.005.025-.003.024-.001.025-.001zm-6.5 1s.098.005.098.005l.097.014.095.024.093.033.088.042.085.051.078.058.073.066.066.073.058.078.051.085.042.088.033.093.024.095.014.097.005.098v3.848l-.002.092-.005.1-.008.099-.011.099-.015.098-.018.098-.021.096-.025.095-.027.095-.03.093-.034.092-.036.091-.039.089-.042.088-.045.087-.047.085-.05.084-.053.082-.056.08-.058.078-.061.077-.064.074-.066.073-.068.07-.071.069-.073.066-.076.064-.077.061-.08.059-.083.057-.084.054-.079.047-1.582.904-.117.068-.111.067-.11.069-.108.071-.108.072-.105.074-.105.076-.102.077-.102.079-.099.08-.099.082-.097.083-.095.085-.094.086-.092.088-.091.089-.089.091-.088.091-.086.093-.084.095-.083.096-.081.097-.08.098-.078.1-.076.1-.074.102-.073.103-.071.105-.07.105-.068.107-.065.107-.065.109-.062.109-.061.111-.059.112-.057.112-.055.114-.053.114-.052.115-.049.116-.048.117-.046.118-.044.119-.042.119-.04.121-.039.121-.036.121-.034.122-.032.123-.031.124-.028.124-.026.125-.025.126-.022.126-.02.126-.018.127-.016.128-.014.128-.012.128-.01.129-.007.129-.006.13-.003.13-.001.135v.825l.001.091.001.088.003.088.004.087.005.088.006.087.007.087.008.087.009.087.01.087.011.086.013.086.013.086.014.086.016.085.016.086.018.084.018.085.02.085.021.084.021.084.023.083.024.083.024.083.026.083.027.082.027.082.029.082.029.081.031.081.032.08.032.08.034.08.034.079.036.079.036.078.038.078.038.077.039.077.041.077.041.076.042.075.043.076.044.074.045.074.046.074.047.073.047.072.049.072.049.072.051.07.051.071.052.069.053.069.054.069.055.068.056.067.057.066.057.066.059.066.059.064.06.064.061.064.062.062.062.062.064.061.064.06.064.059.066.059.066.057.066.057.067.056.068.055.069.054.069.053.069.052.071.051.07.051.072.049.072.049.072.047.073.047.074.046.074.045.074.044.075.043.076.042.076.041.077.041.077.039.077.038.078.038.078.036.079.036.079.034.08.034.08.032.08.032.081.031.081.029.082.029.082.027.082.027.083.026.083.024.083.024.083.023.084.021.084.021.085.02.084.018.085.018.086.016.085.016.086.014.086.013.086.013.086.011.087.01.087.009.087.008.087.007.087.006.088.005.087.004.088.003.088.001.091.001h3.826l.091-.001.088-.001.088-.003.087-.004.088-.005.087-.006.087-.007.087-.008.087-.009.087-.01.086-.011.086-.013.086-.013.086-.014.085-.016.086-.016.085-.018.084-.018.085-.02.084-.021.084-.021.083-.023.083-.024.083-.024.083-.026.082-.027.082-.027.082-.029.081-.029.081-.031.08-.032.08-.032.08-.034.079-.034.079-.036.078-.036.078-.038.077-.038.077-.039.077-.041.076-.041.076-.042.075-.043.074-.044.074-.045.074-.046.073-.047.072-.047.072-.049.072-.049.07-.051.071-.051.069-.052.069-.053.069-.054.068-.055.067-.056.066-.057.066-.057.066-.059.064-.059.064-.06.064-.061.062-.062.062-.062.061-.064.06-.064.059-.064.059-.066.057-.066.057-.066.056-.067.055-.068.054-.069.053-.069.052-.069.051-.071.051-.07.049-.072.049-.072.047-.072.047-.073.046-.074.045-.074.044-.074.043-.076.042-.075.041-.076.041-.077.039-.077.038-.077.038-.078.036-.078.036-.079.034-.079.034-.08.032-.08.032-.08.031-.081.029-.081.029-.082.027-.082.027-.082.026-.083.024-.083.024-.083.023-.083.021-.084.021-.084.02-.085.018-.085.018-.084.016-.086.016-.085.014-.086.013-.086.013-.086.011-.086.01-.087.009-.087.008-.087.007-.087.006-.087.005-.088.004-.087.003-.088.001-.088.001-.091v-.825l-.001-.135-.003-.13-.006-.13-.007-.129-.01-.129-.012-.128-.014-.128-.016-.128-.018-.127-.02-.126-.022-.126-.025-.126-.026-.125-.028-.124-.031-.124-.032-.123-.034-.122-.036-.121-.039-.121-.04-.121-.042-.119-.044-.119-.046-.118-.048-.117-.049-.116-.052-.115-.053-.114-.055-.114-.057-.112-.059-.112-.061-.111-.062-.109-.065-.109-.065-.107-.068-.107-.07-.105-.071-.105-.073-.103-.074-.102-.076-.1-.078-.1-.08-.098-.081-.097-.083-.096-.084-.095-.086-.093-.088-.091-.089-.091-.091-.089-.092-.088-.094-.086-.095-.085-.097-.083-.099-.082-.099-.08-.102-.079-.102-.077-.105-.076-.105-.074-.108-.072-.108-.071-.11-.069-.111-.067-.117-.068-1.582-.904-.079-.047-.084-.054-.083-.057-.08-.059-.077-.061-.076-.064-.073-.066-.071-.069-.068-.07-.066-.073-.064-.074-.061-.077-.058-.078-.056-.08-.053-.082-.05-.084-.047-.085-.045-.087-.042-.088-.039-.089-.036-.091-.034-.092-.03-.093-.027-.095-.025-.095-.021-.096-.018-.098-.015-.098-.011-.099-.008-.099-.005-.1-.002-.092v-3.848l.005-.098.014-.097.024-.095.033-.093.042-.088.051-.085.058-.078.066-.073.073-.066.078-.058.085-.051.088-.042.093-.033.095-.024.097-.014.098-.005h-6z" fill="#d8d8d8"/><path d="m14 2h4v4h-4z" fill="#63401e"/></g></svg>