<svg clip-rule="evenodd" fill-rule="evenodd" stroke-linejoin="round" stroke-miterlimit="2" viewBox="0 0 32 32" xmlns="http://www.w3.org/2000/svg" xmlns:xlink="http://www.w3.org/1999/xlink"><clipPath id="a"><path clip-rule="evenodd" d="m0 0h32v32h-32z"/></clipPath><path d="m0 0h32v32h-32z" fill="none"/><g clip-path="url(#a)"><path d="m32 7c0-.796-.316-1.559-.879-2.121-.562-.563-1.325-.879-2.121-.879-6.102 0-19.898 0-26 0-.796 0-1.559.316-2.121.879-.563.562-.879 1.325-.879 2.121v18c0 .796.316 1.559.879 2.121.562.563 1.325.879 2.121.879h26c.796 0 1.559-.316 2.121-.879.563-.562.879-1.325.879-2.121 0-4.611 0-13.389 0-18z"/><path d="m30 7c0-.552-.448-1-1-1-4.355 0-21.645 0-26 0-.552 0-1 .448-1 1v18c0 .552.448 1 1 1h26c.552 0 1-.448 1-1 0-3.414 0-14.586 0-18z" fill="#3f3f3f"/><path d="m24 21c.552 0 1 .448 1 1s-.448 1-1 1h-1v1c0 .552-.448 1-1 1s-1-.448-1-1v-1.876l-5-1.667-5 1.667v1.851c0 .272-.108.533-.3.725s-.453.3-.725.3h-.001c-.258 0-.506-.103-.689-.285-.182-.183-.285-.431-.285-.689v-1.026h-1c-.552 0-1-.448-1-1s.448-1 1-1h1.628l4-1.333-5-1.667h-1.628c-.552 0-1-.448-1-1s.448-1 1-1h1v-1c0-.552.448-1 1-1s1 .448 1 1v1.876l2.65.883c.099.243.247.466.436.655.375.375.884.586 1.414.586h3c.53 0 1.039-.211 1.414-.586.189-.189.337-.412.436-.655l2.65-.883v-1.876c0-.552.448-1 1-1s1 .448 1 1v1h1c.552 0 1 .448 1 1s-.448 1-1 1h-1.628l-5 1.667 4 1.333zm-10.5-5.292c-.493-.199-.945-.497-1.328-.88-.751-.75-1.172-1.767-1.172-2.828 0-.332 0-.668 0-1 0-1.061.421-2.078 1.172-2.828.75-.751 1.767-1.172 2.828-1.172h2c1.061 0 2.078.421 2.828 1.172.751.75 1.172 1.767 1.172 2.828v1c0 1.061-.421 2.078-1.172 2.828-.383.383-.835.681-1.328.88v1.292c0 .552-.448 1-1 1-.871 0-2.129 0-3 0-.552 0-1-.448-1-1zm1.5-3.21c0-.397-.158-.778-.439-1.059s-.662-.439-1.059-.439h-.034c-.389 0-.763.155-1.038.43s-.43.649-.43 1.038v.064c0 .389.155.763.43 1.038s.649.43 1.038.43h.034c.397 0 .778-.158 1.059-.439s.439-.662.439-1.059zm5 0c0-.397-.158-.778-.439-1.059s-.662-.439-1.059-.439h-.034c-.389 0-.763.155-1.038.43s-.43.649-.43 1.038v.064c0 .389.155.763.43 1.038s.649.43 1.038.43h.034c.397 0 .778-.158 1.059-.439s.439-.662.439-1.059z" fill="#fff"/></g></svg>