<svg clip-rule="evenodd" fill-rule="evenodd" stroke-linejoin="round" stroke-miterlimit="2" viewBox="0 0 32 32" xmlns="http://www.w3.org/2000/svg" xmlns:xlink="http://www.w3.org/1999/xlink"><clipPath id="a"><path clip-rule="evenodd" d="m0 0h32v32h-32z"/></clipPath><clipPath id="b"><path clip-rule="evenodd" d="m2 2h28v28h-28z"/></clipPath><path d="m0 0h32v32h-32z" fill="none"/><g clip-path="url(#a)"><path d="m32 2c0-.53-.211-1.039-.586-1.414s-.884-.586-1.414-.586h-28c-.53 0-1.039.211-1.414.586s-.586.884-.586 1.414v28c0 .53.211 1.039.586 1.414s.884.586 1.414.586h28c.53 0 1.039-.211 1.414-.586s.586-.884.586-1.414z"/><path d="m2 2h28v28h-28z" fill="#282480"/><g clip-path="url(#b)" fill="#ffeec9"><path d="m25.5 1.5c0-.133-.053-.26-.146-.354-.094-.093-.221-.146-.354-.146s-.26.053-.354.146c-.093.094-.146.221-.146.354v2c0 .133.053.26.146.354.094.093.221.146.354.146s.26-.053.354-.146c.093-.094.146-.221.146-.354 0-.555 0-1.445 0-2z"/><path d="m26 3c.133 0 .26-.053.354-.146.093-.094.146-.221.146-.354s-.053-.26-.146-.354c-.094-.093-.221-.146-.354-.146-.555 0-1.445 0-2 0-.133 0-.26.053-.354.146-.093.094-.146.221-.146.354s.053.26.146.354c.094.093.221.146.354.146z"/><path d="m28.5 14.5c0-.133-.053-.26-.146-.354-.094-.093-.221-.146-.354-.146s-.26.053-.354.146c-.093.094-.146.221-.146.354v2c0 .133.053.26.146.354.094.093.221.146.354.146s.26-.053.354-.146c.093-.094.146-.221.146-.354 0-.555 0-1.445 0-2z"/><path d="m29 16c.133 0 .26-.053.354-.146.093-.094.146-.221.146-.354s-.053-.26-.146-.354c-.094-.093-.221-.146-.354-.146-.555 0-1.445 0-2 0-.133 0-.26.053-.354.146-.093.094-.146.221-.146.354s.053.26.146.354c.094.093.221.146.354.146z"/><path d="m12.5 24.5c0-.133-.053-.26-.146-.354-.094-.093-.221-.146-.354-.146s-.26.053-.354.146c-.093.094-.146.221-.146.354v2c0 .133.053.26.146.354.094.093.221.146.354.146s.26-.053.354-.146c.093-.094.146-.221.146-.354 0-.555 0-1.445 0-2z"/><path d="m13 26c.133 0 .26-.053.354-.146.093-.094.146-.221.146-.354s-.053-.26-.146-.354c-.094-.093-.221-.146-.354-.146-.555 0-1.445 0-2 0-.133 0-.26.053-.354.146-.093.094-.146.221-.146.354s.053.26.146.354c.094.093.221.146.354.146z"/><path d="m4.5 2.5c0-.133-.053-.26-.146-.354-.094-.093-.221-.146-.354-.146s-.26.053-.354.146c-.093.094-.146.221-.146.354v2.001c0 .276.223.499.499.499h.002c.276 0 .499-.223.499-.499 0-.555 0-1.446 0-2.001z"/><path d="m5 4c.133 0 .26-.053.354-.146.093-.094.146-.221.146-.354v-.001c0-.276-.223-.499-.499-.499-.555 0-1.447 0-2.002 0-.276 0-.499.223-.499.499v.001c0 .133.053.26.146.354.094.093.221.146.354.146z"/></g><path d="m15 16h2v14h-2z" fill="#8b6d19"/><g fill="#f3aa00"><path d="m27.581 21.701c.263.188.419.491.419.814v1.867c0 .379-.214.725-.553.894-.31.155-.678.139-.973-.043-.295-.183-.474-.504-.474-.851 0-.384 0-.758 0-1.02 0-.234-.082-.46-.232-.64-.984-1.181-4.768-5.722-4.768-5.722s5.072 3.623 6.581 4.701z"/><path d="m7.252 8.168c-.164-.11-.357-.168-.555-.168-.473 0-1.43 0-2.358 0-.392 0-.745-.236-.895-.598s-.067-.779.21-1.056c0 0 .001-.001.001-.001.214-.214.525-.3.819-.227.845.212 2.589.648 3.257.815.176.044.337.135.465.263.924.924 4.804 4.804 4.804 4.804s-4.61-3.073-5.748-3.832z"/><path d="m5.285 18.81c-.185.123-.323.305-.393.515-.114.34-.298.894-.47 1.41-.098.293-.049.615.132.866.18.251.47.399.779.399h.001c.398 0 .751-.254.877-.632.223-.671.565-1.695.714-2.144.049-.147.132-.281.242-.391.757-.757 3.833-3.833 3.833-3.833s-4.522 3.015-5.715 3.81z"/><path d="m7.549 23.914c-.033.057-.059.117-.08.18-.11.33-.485 1.455-.735 2.204-.134.403.048.843.428 1.033h.001c.286.144.626.128.899-.04.272-.168.438-.466.438-.786 0-.527 0-1.055 0-1.324 0-.12.022-.239.064-.351.433-1.156 2.936-7.83 2.936-7.83s-3.494 6.114-3.951 6.914z"/><path d="m25.8 16.9c.132.066.247.16.338.276.274.347.903 1.147 1.451 1.843.223.283.569.442.93.427.36-.014.692-.202.891-.503 0 0 .001-.001.001-.002.327-.494.197-1.158-.292-1.493-.638-.435-1.456-.995-1.864-1.274-.166-.113-.363-.174-.564-.174-.766 0-2.691 0-2.691 0s1.293.647 1.8.9z"/><path d="m15 16s-1.778 2.668-2.964 4.445c-.204.307-.223.702-.049 1.027s.513.528.882.528h.284c.489 0 .906-.353.986-.836.275-1.649.861-5.164.861-5.164z"/><path d="m19 19s.557 2.783.839 4.196c.094.468.504.804.981.804h.099c.385 0 .735-.22.902-.567.166-.346.119-.758-.121-1.058-1.168-1.459-2.7-3.375-2.7-3.375z"/><path d="m21 10s1.621-2.161 2.48-3.306c.298-.398.259-.955-.093-1.307-.004-.004-.009-.009-.013-.013-.265-.265-.656-.359-1.012-.245-.357.114-.62.418-.681.788-.293 1.755-.681 4.083-.681 4.083z"/><path d="m21.5 11 4.5-4h1.113c.321 0 .623-.155.811-.415.188-.261.239-.596.137-.901-.001-.003-.002-.006-.002-.008-.114-.342-.403-.596-.757-.666-.353-.069-.717.057-.951.331-1.743 2.032-4.851 5.659-4.851 5.659z"/><path d="m9 14h-5.198c-.213 0-.417.084-.567.235-.151.15-.235.354-.235.567v.002c0 .277.133.537.358.699s.514.206.777.119c1.739-.58 4.865-1.622 4.865-1.622z"/><path d="m13.5 8s-2.1-2.8-2.786-3.715c-.135-.179-.346-.285-.571-.285 0 0-.001 0-.002 0-.438 0-.822.295-.934.719-.113.424.074.87.455 1.088 1.855 1.06 3.838 2.193 3.838 2.193z"/><path d="m25.823 11.576c.117-.05.223-.122.313-.212.196-.196.573-.573.937-.937.215-.215.52-.313.819-.264.3.048.559.238.694.51.001 0 .001.001.001.001.228.456.043 1.011-.413 1.239-.418.209-.879.439-1.076.538-.065.033-.134.058-.205.076-.947.236-7.893 1.973-7.893 1.973s5.735-2.458 6.823-2.924z"/><path d="m16 11v-7.216c0-.208.083-.407.23-.554s.346-.23.554-.23h.06c.361 0 .687.218.825.551.138.334.062.718-.193.973-.001.001-.002.002-.002.002-.308.308-.512.705-.584 1.135-.26 1.559-.89 5.339-.89 5.339z"/></g><path d="m12 7 4 2 4-2v4h4l-3 3 2 4h-5l-2 4-2-4h-5l2-4-3-3h4z" fill="#fdbe37"/><path d="m14 10 2 1 2-1v2h3l-2 2 1 2h-3l-1 2-1-2h-3l1-2-2-2h3z" fill="#ffeec9"/></g></svg>