<svg clip-rule="evenodd" fill-rule="evenodd" stroke-linejoin="round" stroke-miterlimit="1.41421" viewBox="0 0 32 32" xmlns="http://www.w3.org/2000/svg" xmlns:xlink="http://www.w3.org/1999/xlink"><clipPath id="a"><path clip-rule="evenodd" d="m0 0v32h32v-32z"/></clipPath><path d="m0 0v32h32v-32z" fill="none"/><g clip-path="url(#a)"><path d="m7 22h-2c-1.657 0-3-1.343-3-3 0-3.329 0-8.671 0-12 0-1.657 1.343-3 3-3h22c1.657 0 3 1.343 3 3v12c0 1.657-1.343 3-3 3h-13l-7 7z" fill="none" stroke="#000" stroke-width="4"/><path d="m7 22h-2c-1.657 0-3-1.343-3-3 0-1.5 0-3 0-3h28v3c0 1.657-1.343 3-3 3h-13l-7 7z" fill="#747474" fill-rule="nonzero"/><path d="m7 20h-2c-1.657 0-3-1.343-3-3 0-2.859 0-7.141 0-10 0-1.657 1.343-3 3-3h22c1.657 0 3 1.343 3 3v10c0 1.657-1.343 3-3 3h-14l-6 6z" fill="#fff"/></g></svg>