<svg clip-rule="evenodd" fill-rule="evenodd" stroke-linecap="round" stroke-linejoin="round" stroke-miterlimit="1.5" viewBox="0 0 32 32" xmlns="http://www.w3.org/2000/svg" xmlns:xlink="http://www.w3.org/1999/xlink"><clipPath id="a"><path clip-rule="evenodd" d="m0 0h32v32h-32z"/></clipPath><clipPath id="b"><path clip-rule="evenodd" d="m12 5.5c0-.133.053-.26.146-.354.094-.093.221-.146.354-.146h7c.133 0 .26.053.354.146.093.094.146.221.146.354v1c0 .133-.053.26-.146.354-.094.093-.221.146-.354.146-.25 0-.5 0-.5 0v3s2.711 5.421 3.669 7.338c.214.427.267.917.152 1.38-.478 1.911-1.79 7.158-2.442 9.767-.223.89-1.023 1.515-1.941 1.515-1.408 0-3.468 0-4.876 0-.918 0-1.718-.625-1.941-1.515-.652-2.609-1.964-7.856-2.442-9.767-.115-.463-.062-.953.152-1.38.958-1.917 3.669-7.338 3.669-7.338v-3s-.25 0-.5 0c-.133 0-.26-.053-.354-.146-.093-.094-.146-.221-.146-.354 0-.305 0-.695 0-1z"/></clipPath><path d="m0 0h32v32h-32z" fill="none"/><g clip-path="url(#a)"><path d="m12 5.5c0-.133.053-.26.146-.354.094-.093.221-.146.354-.146h7c.133 0 .26.053.354.146.093.094.146.221.146.354v1c0 .133-.053.26-.146.354-.094.093-.221.146-.354.146-.25 0-.5 0-.5 0v3s2.711 5.421 3.669 7.338c.214.427.267.917.152 1.38-.478 1.911-1.79 7.158-2.442 9.767-.223.89-1.023 1.515-1.941 1.515-1.408 0-3.468 0-4.876 0-.918 0-1.718-.625-1.941-1.515-.652-2.609-1.964-7.856-2.442-9.767-.115-.463-.062-.953.152-1.38.958-1.917 3.669-7.338 3.669-7.338v-3s-.25 0-.5 0c-.133 0-.26-.053-.354-.146-.093-.094-.146-.221-.146-.354 0-.305 0-.695 0-1z" stroke="#000" stroke-width="4"/><path d="m14 2h4v5h-4z" fill="#63401e" stroke="#000" stroke-width="4"/><path d="m12 5.5c0-.133.053-.26.146-.354.094-.093.221-.146.354-.146h7c.133 0 .26.053.354.146.093.094.146.221.146.354v1c0 .133-.053.26-.146.354-.094.093-.221.146-.354.146-.25 0-.5 0-.5 0v3s2.711 5.421 3.669 7.338c.214.427.267.917.152 1.38-.478 1.911-1.79 7.158-2.442 9.767-.223.89-1.023 1.515-1.941 1.515-1.408 0-3.468 0-4.876 0-.918 0-1.718-.625-1.941-1.515-.652-2.609-1.964-7.856-2.442-9.767-.115-.463-.062-.953.152-1.38.958-1.917 3.669-7.338 3.669-7.338v-3s-.25 0-.5 0c-.133 0-.26-.053-.354-.146-.093-.094-.146-.221-.146-.354 0-.305 0-.695 0-1z" fill="#d8d8d8"/><g clip-path="url(#b)"><path d="m6 12h21v19h-21z" fill="#ef9b00"/><path d="m6 12h21v3h-21z" fill="#ffb940"/><path d="m16 10s-1.956 5.216-2.709 7.225c-.191.507-.24 1.057-.143 1.59.463 2.546 1.852 10.185 1.852 10.185v2h-7v-24h8z" fill="#fff" fill-opacity=".494118"/></g><path d="m19.5 5 .025.001.024.001.025.003.024.005.024.005.023.007.024.007.022.009.023.01.021.011.022.012.02.013.02.014.02.015.019.016.018.017.017.018.016.019.015.02.014.02.013.02.012.022.011.021.01.023.009.022.007.024.007.023.005.024.005.024.003.025.001.024.001.025v1l-.001.025-.001.024-.003.025-.005.024-.005.024-.007.023-.007.024-.009.022-.01.023-.011.021-.012.022-.013.02-.014.02-.015.02-.016.019-.017.018-.018.017-.019.016-.02.015-.02.014-.02.013-.022.012-.021.011-.023.01-.022.009-.024.007-.023.007-.024.005-.024.005-.025.003-.024.001-.025.001h-.5v3l3.669 7.338.02.04.018.041.018.041.017.041.015.042.015.041.014.043.013.042.012.042.011.043.01.043.009.043.009.044.007.043.006.044.005.043.005.044.003.044.002.044.002.044v.044.045l-.002.044-.002.044-.004.044-.004.044-.006.044-.006.044-.007.044-.009.044-.009.043-.01.044-2.442 9.767-.011.042-.012.041-.012.041-.014.04-.014.04-.015.039-.015.039-.017.039-.017.038-.018.038-.019.037-.019.037-.021.036-.02.035-.022.036-.022.034-.023.035-.024.033-.024.033-.025.033-.026.032-.026.031-.027.031-.027.031-.028.029-.029.03-.029.028-.029.028-.031.027-.031.027-.031.026-.032.025-.032.025-.033.024-.033.024-.034.022-.034.022-.035.022-.035.02-.036.02-.036.02-.037.018-.036.018-.038.017-.037.016-.038.016-.039.015-.039.013-.039.014-.039.012-.04.012-.04.01-.04.01-.041.01-.041.008-.041.007-.041.007-.042.006-.042.005-.042.004-.042.003-.043.002-.043.002h-.043-4.876-.043l-.043-.002-.043-.002-.042-.003-.042-.004-.042-.005-.042-.006-.041-.007-.041-.007-.041-.008-.041-.01-.04-.01-.04-.01-.04-.012-.039-.012-.039-.014-.039-.013-.039-.015-.038-.016-.037-.016-.038-.017-.036-.018-.037-.018-.036-.02-.036-.02-.035-.02-.035-.022-.034-.022-.034-.022-.033-.024-.033-.024-.032-.025-.032-.025-.031-.026-.031-.027-.031-.027-.029-.028-.029-.028-.029-.03-.028-.029-.027-.031-.027-.031-.026-.031-.026-.032-.025-.033-.024-.033-.024-.033-.023-.035-.022-.034-.022-.036-.02-.035-.021-.036-.019-.037-.019-.037-.018-.038-.017-.038-.017-.039-.015-.039-.015-.039-.014-.04-.014-.04-.012-.041-.012-.041-.011-.042-2.442-9.767-.01-.044-.009-.043-.009-.044-.007-.044-.006-.044-.006-.044-.004-.044-.004-.044-.002-.044-.002-.044v-.045-.044l.002-.044.002-.044.003-.044.005-.044.005-.043.006-.044.007-.043.009-.044.009-.043.01-.043.011-.043.012-.042.013-.042.014-.043.015-.041.015-.042.017-.041.018-.041.018-.041.02-.04 3.669-7.338v-3h-.5l-.025-.001-.024-.001-.025-.003-.024-.005-.024-.005-.023-.007-.024-.007-.022-.009-.023-.01-.021-.011-.022-.012-.02-.013-.02-.014-.02-.015-.019-.016-.018-.017-.017-.018-.016-.019-.015-.02-.014-.02-.013-.02-.012-.022-.011-.021-.01-.023-.009-.022-.007-.024-.007-.023-.005-.024-.005-.024-.003-.025-.001-.024-.001-.025v-1l.001-.025.001-.024.003-.025.005-.024.005-.024.007-.023.007-.024.009-.022.01-.023.011-.021.012-.022.013-.02.014-.02.015-.02.016-.019.017-.018.018-.017.019-.016.02-.015.02-.014.02-.013.022-.012.021-.011.023-.01.022-.009.024-.007.023-.007.024-.005.024-.005.025-.003.024-.001.025-.001zm-6.5 1s.098.005.098.005l.097.014.095.024.093.033.088.042.085.051.078.058.073.066.066.073.058.078.051.085.042.088.033.093.024.095.014.097.005.098v3l-.004.093-.013.091-.021.091-.03.087-.038.085-3.666 7.333-.012.026-.01.02-.009.02-.008.021-.008.021-.007.021-.007.021-.007.021-.006.021-.005.021-.005.022-.005.021-.004.022-.003.022-.004.022-.002.022-.002.021-.002.023-.001.022-.001.022v.022.022l.001.022.001.022.002.022.002.022.003.022.003.022.004.022.004.022.004.021.007.028 2.439 9.756.007.027.006.02.006.021.007.02.007.02.007.02.008.019.008.019.009.019.009.019.009.019.01.018.01.018.01.018.011.017.011.018.012.017.011.016.013.017.012.016.013.016.013.016.013.015.014.016.014.014.014.015.015.014.015.014.015.014.016.013.015.013.016.013.016.013.017.012.017.011.017.012.017.011.017.011.018.01.018.01.018.01.018.009.018.009.019.008.019.008.019.008.019.007.019.007.02.007.019.006.02.006.02.005.02.005.02.005.021.004.02.004.021.003.021.003.021.002.021.002.021.002.021.001.022.001h.027 4.866.027l.022-.001.021-.001.021-.002.021-.002.021-.002.021-.003.021-.003.02-.004.021-.004.02-.005.02-.005.02-.005.02-.006.019-.006.02-.007.019-.007.019-.007.019-.008.019-.008.019-.008.018-.009.018-.009.018-.01.018-.01.018-.01.017-.011.017-.011.017-.012.017-.011.017-.012.016-.013.016-.013.015-.013.016-.013.015-.014.015-.014.015-.014.014-.015.014-.014.014-.016.013-.015.013-.016.013-.016.012-.016.013-.017.011-.016.012-.017.011-.018.011-.017.01-.018.01-.018.01-.018.009-.019.009-.019.009-.019.008-.019.008-.019.007-.02.007-.02.007-.02.006-.021.006-.02.007-.027 2.439-9.756.007-.028.004-.021.004-.022.004-.022.003-.022.003-.022.002-.022.002-.022.001-.022.001-.022v-.022-.022l-.001-.022-.001-.022-.002-.023-.002-.021-.002-.022-.004-.022-.003-.022-.004-.022-.005-.021-.005-.022-.005-.021-.006-.021-.007-.021-.007-.021-.007-.021-.008-.021-.008-.021-.009-.02-.01-.02-.012-.026-3.666-7.333-.038-.085-.03-.087-.021-.091-.013-.091-.004-.093v-3l.005-.098.014-.097.024-.095.033-.093.042-.088.051-.085.058-.078.066-.073.073-.066.078-.058.085-.051.088-.042.093-.033.095-.024.097-.014.098-.005z" fill="#d8d8d8"/><path d="m14 2h4v4h-4z" fill="#63401e"/></g></svg>