<svg clip-rule="evenodd" fill-rule="evenodd" stroke-linejoin="round" stroke-miterlimit="2" viewBox="0 0 673 862" xmlns="http://www.w3.org/2000/svg" xmlns:xlink="http://www.w3.org/1999/xlink"><radialGradient id="a" cx="0" cy="0" gradientTransform="matrix(27.8666 -26.1129 26.1129 27.8666 543.75 123.663)" gradientUnits="userSpaceOnUse" r="1"><stop offset="0" stop-color="#f9e510"/><stop offset="1" stop-color="#b68113"/></radialGradient><radialGradient id="b" cx="0" cy="0" gradientTransform="matrix(31.1642 -26.9728 26.9728 31.1642 543.167 120.925)" gradientUnits="userSpaceOnUse" r="1"><stop offset="0" stop-color="#8bf75f"/><stop offset="1" stop-color="#0f8002"/></radialGradient><radialGradient id="c" cx="0" cy="0" gradientTransform="matrix(31.5622 -32.4008 32.4008 31.5622 541.863 121.833)" gradientUnits="userSpaceOnUse" r="1"><stop offset="0" stop-color="#0190f0"/><stop offset="1" stop-color="#155cb7"/></radialGradient><path d="m.0003.0004h672.328v861.812h-672.328z" fill="none"/><g transform="translate(-193.9067 .7815)"><path d="m251.338 418.547c.086-1.835.326-3.675.725-5.5.475-2.178 1.165-4.281 2.049-6.284.424-4.348 1.712-8.626 3.859-12.57 1.787-3.284 38.189-94.988 49.465-96.152l18.988-1.959c18.117-1.87 372.679-28.541 385.167-24.579 15.683 4.977 44.751 61.059 51.335 67.683 0 0 6.866 17.07 6.449 85.953-.616 101.594.911 150.932-.62 218.94-.671 29.799-20.097 72.435-43.094 93.095-43.338 38.934-372.968-8.411-384.87-19.538-38.597-25.494-55.275-47.775-65.164-75.951-7.977-22.727 8.518-46.876 5.827-93.108l-6.029-13.923-.999-14.254.261-1.274-23.573-13.734.257-1.055c-.487-.595-.986-1.203-1.494-1.823-4.824-5.878-7.447-13.21-7.49-20.743l-2.741-5.197-1.573-13.336 1.324-6.095c-1.695-4.522-2.4-9.418-1.984-14.355.822-9.762 5.937-18.635 13.925-24.241zm30.257 130.356c.187.699.472 1.219.727 1.68z" fill="#fff" stroke="#000" stroke-width="10.7" transform="matrix(1.05563 0 0 1 -25.4476 0)"/><g stroke-linecap="round" stroke-miterlimit="1.5"><path d="m290.607 668.657c-.974.41-35.418 28.884-36.477 29.133-23.458 5.536-46.953-49.761-66.996-100.254-20.043-50.492-31.183-105.241-7.725-110.777 11.852-2.797 29.365 3.397 43.772 18.442 10.509-156.754 133.358-246.725 292.756-246.725 143.07 0 280.56 88.434 311.224 222.261 10.304-5.32 14.925-10.23 25.649-8.715 33.503 4.733 29.555 66.071 17.954 110.862-19.548 75.48-60.549 105.254-93.823 101.142-50.923 149.7-126.023 183.775-261.171 183.775-115.172 0-156.901-24.245-225.163-199.144z" fill="#e4c5b3" stroke="#000" stroke-width="12.22" transform="matrix(.78719 0 0 1 121.147 -33.7767)"/><path d="m440.216 688.649s49.18-34.029 69.267-30.756c20.088 3.273 16.249 11.22 26.842 11.018s42.652-12.04 62.855-3.518c20.203 8.523 43.664 16.264 43.664 16.264l12.663-21.038-12.663 21.038.846 35.084-.846-35.084s-23.67-14.244-85.142 26.1c-13.733 9.013-19.09 11.159-35.246 9.2s-31.35-14.795-82.24-28.308z" fill="#c0735f" stroke="#000" stroke-width="7"/><path d="m432.15 710.782 8.066-22.133-17.953-23.292" fill="none" stroke="#000" stroke-width="7"/><path d="m476.293 601.736s27.966-19.227 55.247 15.72" fill="none" stroke="#000" stroke-width="7"/><path d="m531.54 617.456 19.9.068s34.213-28.261 49.551-20.275" fill="none" stroke="#000" stroke-width="7"/><circle cx="634.764" cy="449.756" fill="#220301" r="19.83" stroke="#fff" stroke-width="7.67" transform="matrix(1 0 0 .815252 0 85.024)"/><circle cx="634.764" cy="449.756" fill="#220301" r="19.83" stroke="#fff" stroke-width="7.61" transform="matrix(1 0 0 .831502 -210.77 89.3597)"/><path d="m345.211 469.906c-1.698-19.053-15.919-29.651-42.023-32.229 0 0 75.303-19.426 126.64-14.198 14.525 1.479 26.368 3.258 36.585 5.011 25.893 4.444 41.339 8.727 63.51 7.566 31.275-1.637 89.888-31.116 126.142-29.672 26.607 1.059 107.508-6.819 107.508-6.819l-79.551 6.204s42.578 16.065 40.252 53.064-10.316 81.203-69.84 83.994c-59.524 2.79-72.047-17.87-94.208-61.332-11.954-23.443-9.189-21.841-23.526-23.785-14.338-1.945-23.782 5.987-29.287 28.585-5.506 22.597-12.279 71.261-77.239 67.607-38.711-2.177-94.738-33.185-84.963-83.996 2.589-13.46 9.795-28.309 23.164-44.38" fill="none" stroke="#000" stroke-width="11"/><path d="m763.573 399.565c-20.67 11.602-34.323 30.762-39.299 59.268" fill="none" stroke="#000" stroke-width="11"/><path d="m725.118 207.235 33.235-13.482s-21.874-80.423-74.012-98.089c-91.69-31.068-227.71-28.948-309.881 3.491-41.63 16.434-70.35 71.607-69.116 90.502 1.08 16.531 241.859 24.226 241.859 24.226z" fill="#fff" stroke="#000" stroke-width="11" transform="translate(12)"/></g><path d="m324.654 191.467c23.16-26.06 57.381-48.995 92.833-54.2 52.906-7.768 148.717-23.164 224.605 7.593 19.32 7.83 56.202 14.347 85.659 54.872 10.152 13.967 12.522-11.867 33.067-6.231 17.266 4.737 19.619 15.45 28.402 62.732 3.291 17.714-.403 177.054-4.028 179.875-36.565 28.459-27.512-28.735-45.162-85.295-7.515-24.083-69.606-51.887-118.611-50.84-47.422 1.013-177.023.225-213.155-1.116-13.471-.5-121.128 30.692-132.914 77.433-.651 2.582-1.502 6.317-2.581 10.699-4.354 17.679-12.426 45.882-26.082 51.324-9.745-6.755-22.051-31.285-10.13-81.089 9.625-40.211 12.942-96.585 26.763-129.922 9.832-23.713 45.863-46.427 61.334-35.835" transform="translate(12)"/><path d="m323.535 186.624s51.104-69.031 205.066-60.714c153.961 8.316 199.939 71.041 199.939 71.041" fill="none" stroke="#af8036" stroke-linecap="round" stroke-miterlimit="1.5" stroke-width="11" transform="translate(12)"/><path d="m524.677 33.347c50.62-.732 90.569 14.786 100.944 57.841 10.376 43.056 4.993 97.91 4.993 97.91l-213.94 3.976s-4.416-78.518 1.4-99.593c7.313-26.494 45.818-59.254 106.603-60.134z" transform="translate(12)"/><g stroke="#fff" stroke-linecap="round" stroke-miterlimit="1.5" stroke-width="4" transform="translate(-32.8948 42.2351)"><path d="m542.723 87.778 28.894 5.085 3.185 38.456-15.068 12.393-36.837-1.902-.463-42.303z" fill="url(#a)"/><g fill="none"><path d="m524.741 99.959 35.113 4.176.056 36.929" transform="translate(-1)"/><path d="m558.854 104.135 14.014-10.773"/></g></g><g stroke="#fff" stroke-linecap="round" stroke-miterlimit="1.5" stroke-width="4" transform="translate(14.5534 39.6624)"><path d="m542.723 87.778 28.894 5.085 3.185 38.456-15.068 12.393-36.837-1.902-.463-42.303z" fill="url(#b)"/><g fill="none"><path d="m524.741 99.959 35.113 4.176.056 36.929" transform="translate(-1)"/><path d="m558.854 104.135 14.014-10.773"/></g></g><g stroke="#fff" stroke-linecap="round" stroke-miterlimit="1.5" stroke-width="4" transform="translate(-7.53875 -5.04952)"><path d="m542.723 87.778 28.894 5.085 3.185 38.456-15.068 12.393-36.837-1.902-.463-42.303z" fill="url(#c)"/><g fill="none"><path d="m524.741 99.959 35.113 4.176.056 36.929" transform="translate(-1)"/><path d="m558.854 104.135 14.014-10.773"/></g></g></g></svg>