<svg clip-rule="evenodd" fill-rule="evenodd" stroke-linejoin="round" stroke-miterlimit="2" viewBox="0 0 818 706" xmlns="http://www.w3.org/2000/svg"><g transform="matrix(.966741 0 0 .875186 -72.9131 -67.3356)"><path d="m75.422 76.939h845.217v806.521h-845.217z" fill="none"/><g stroke="#000" transform="matrix(3.57298 0 0 3.94675 -14.21 -187.734)"><path d="m51.561 149.433c-.943-28.333 27.095-66.263 27.095-66.263s24.739-11.424 63.614-11.424c38.876 0 68.327 13.024 68.327 13.024s27.566 42.728 27.566 63.977c0 21.25-39.818 40.672-39.818 40.672l-56.782 7.54-71.86-19.193z" fill="#f2f2f2" fill-rule="nonzero" stroke-width=".87"/><path d="m143.39 114.254c36.915 0 83.746 27.458 83.746 27.458l-23.492 39.661-46.525 15.254-33.407-1.83-38.288-13.729-21.051-28.983-4.729-10.221s41.034-27.61 83.746-27.61z" fill="#ffd42a" fill-rule="nonzero" stroke-width=".87"/><path d="m195.97 146.241c2.291-1.773 4.608-3.661 6.952-5.663 12.77 3.508 20.463 7.312 20.463 7.312s-24.408 44.661-80.238 44.465c-65.211-.228-78.406-45.991-78.406-45.991s6.24-2.508 16.89-5.306c1.968 1.542 3.916 3.02 5.848 4.433v-26.519c0-7.129 2.832-16.861 7.872-21.902 5.041-5.04 17.201-18.383 45.266-18.383 28.066 0 42.44 13.343 47.48 18.383 5.041 5.041 7.873 14.773 7.873 21.902z" fill="#333" stroke-width=".87"/><path d="m165.661 222.102 5.492 43.017-41.492-32.95z" fill="#0e0e0e" fill-rule="nonzero" stroke-width="1.45"/><g stroke-width=".87"><path d="m123.459 229.149c-89.474-5.56-96.062-48.087-96.062-59.371 0-12.081 11.865-43.577 20.063-43.577 20.278 0 16.687 65.507 95.428 65.507 73.994 0 78.88-64.86 97.864-64.86 3.667 0 18.768 28.476 18.768 44.655 0 15.141-6.234 52.953-96.139 57.745-7.403 20.065-51.11 37.701-51.11 37.701s9.136-19.714 11.188-37.8z" fill="#1a1a42"/><path d="m77.872 145.949c5.034.153 4.425 2.288 10.832 12.356 2.734 4.296 7.438 6.394 11.936 7.392-9.04-3.256-11.711-12.035-11.479-12.73.305-.915 3.203-1.832 4.729-.764 1.525 1.068.609 4.882 4.88 9.764 1.703 1.946 4.037 3.091 6.227 3.765 4.823-1.767 12.219-1.431 13.758-1.021 2.288.61 1.373 2.136 2.898 2.746 1.526.61 1.525-.761 3.508.459s.916 1.983 2.441 2.898c1.526.916 4.576 3.202 6.864 5.643s2.289 2.746 2.289 2.746l-1.526 2.289s-4.577-6.713-7.933-6.865c-3.356-.153-4.88 3.203-7.016 3.203-2.135 0-1.678-4.271-1.678-4.271s-1.372 11.135-9 6.101c-5.862-3.869-.741-6.469 1.948-7.469-3.233 1.007-11.161 2.98-10.795-2.14.092-1.295.795-2.305 1.867-3.094-2.101-.261-3.699-.566-3.699-.566s-4.423 2.439-8.389 1.218c-2.927-.9-2.033-2.545-1.363-3.347-.899.767-3.109 1.826-6.112-2.448-4.647-6.613-2.464-6.725-.804-6.171-3.377-2.221-9.097-9.837-4.383-9.694z" fill="#ffd42a" fill-rule="nonzero" transform="translate(.432816 .253917)"/><path d="m208.967 145.949c-5.034.153-4.425 2.288-10.832 12.356-2.734 4.296-7.439 6.394-11.936 7.392 9.04-3.256 11.71-12.035 11.479-12.73-.305-.915-3.203-1.832-4.729-.764-1.525 1.068-.609 4.882-4.881 9.764-1.703 1.946-4.036 3.091-6.226 3.765-4.823-1.767-12.22-1.431-13.758-1.021-2.288.61-1.373 2.136-2.898 2.746-1.526.61-1.525-.761-3.508.459s-.916 1.983-2.442 2.898c-1.525.916-4.575 3.202-6.863 5.643s-2.289 2.746-2.289 2.746l1.525 2.289s4.578-6.713 7.934-6.865c3.356-.153 4.88 3.203 7.016 3.203 2.135 0 1.677-4.271 1.677-4.271s1.373 11.135 9 6.101c5.863-3.869.742-6.469-1.947-7.469 3.233 1.007 11.161 2.98 10.795-2.14-.092-1.295-.795-2.305-1.867-3.094 2.101-.261 3.699-.566 3.699-.566s4.423 2.439 8.389 1.218c2.927-.9 2.033-2.545 1.363-3.347.899.767 3.108 1.826 6.111-2.448 4.648-6.613 2.465-6.725.805-6.171 3.377-2.221 9.097-9.837 4.383-9.694z" fill="#ffd42a" fill-rule="nonzero" transform="translate(-1.47035 -.053846)"/><path d="m143.243 198.254c-33.006 0-32.143-3.668-48.97-3.668s-31.496 2.805-31.496 7.335 11.002 25.24 80.466 25.24 78.956-19.2 78.956-24.161c0-4.962-15.964-8.63-26.103-8.63s-22.651 3.884-52.853 3.884z" fill="#333" fill-rule="nonzero"/></g><path d="m126.983671923 94.610318203h27.822780728v27.822780728h-27.822780728z" fill="#1566eb" stroke-miterlimit="1" stroke-width=".868521"/><path d="m140.730561923 122.402218203h27.822780728v27.822780728h-27.822780728z" fill="#4cbe00" stroke-miterlimit="1" stroke-width=".868521"/><path d="m112.853961923 122.402218203h27.822780728v27.822780728h-27.822780728z" fill="#ffb00b" stroke-miterlimit="1" stroke-width=".868521"/></g></g></svg>